<?xml version="1.0" encoding="utf-8"?>
<!-- Generator: Adobe Illustrator 26.3.1, SVG Export Plug-In . SVG Version: 6.00 Build 0)  -->
<svg version="1.1" id="Layer_2_00000132793587942200636360000003478238173498840200_"
	 xmlns="http://www.w3.org/2000/svg" xmlns:xlink="http://www.w3.org/1999/xlink" x="0px" y="0px" viewBox="0 0 300 1200"
	 style="enable-background:new 0 0 300 1200;" xml:space="preserve">
<style type="text/css">
	.st0{opacity:0.25;fill:#FFFFFF;enable-background:new    ;}
	.st1{opacity:0.5;fill:#FFFFFF;enable-background:new    ;}
	.st2{fill:#FFFFFF;}
</style>
<path id="_x32_5" class="st0" d="M180,1200h50.5c24.2-47.8,35.1-103.6,30.5-158c-5.9-70.4-36.3-136.3-40.9-206.8
	c-4.8-73.9,18.4-147.6,38.5-218.2c19.6-69.3,27.2-138.3,14.3-209.4c-6.5-36.2-19.4-69.8-32-104.5C207.3,210.5,164.4,87,237.3,0H180
	V1200z"/>
<path id="_x35_0" class="st1" d="M180,1200h17.2c23-13,44.8-27.6,61.3-47.7c42.8-51.7,42.4-117.3,21.3-176.9
	c-11-31.1-28.4-60.1-43.3-89.7c-20.7-40.9-50.2-84.7-54.2-130.8c-3.1-36.3,10.2-70.9,34.5-98.6c27.7-31.8,67.6-62.3,79.6-103.6
	c11.8-40.4-7.3-81.3-26.5-119.1c-19.2-37.8-42.5-75.2-46.9-116.9c-6.4-59.8,24.9-113.4,42.3-169c9.5-30.2,6.8-59-8.2-87.1
	c-11.9-22.4-29.3-48-53.7-60.7H180L180,1200L180,1200z"/>
<path id="_x31_00" class="st2" d="M0,1200h186.1c58.2-149.9,71.7-314.1,40.4-475.8c-8.3-43-21.9-84.2-28.9-127.6
	c-9.4-59,13.3-112.5,38.6-165.6c28-58.9,47.7-117,42-182.2C270.5,162.3,228.3,76.3,185.7,0H0V1200z"/>
</svg>
