<?xml version="1.0" encoding="UTF-8"?><svg id="Layer_2" xmlns="http://www.w3.org/2000/svg" viewBox="0 0 245 1200"><g id="waves-opacity"><path id="_5" d="M125,1200h50.5c24.21-47.8,35.12-103.6,30.54-158-5.89-70.4-36.32-136.3-40.9-206.8-4.8-73.9,18.43-147.6,38.5-218.2,19.63-69.3,27.16-138.3,14.29-209.4-6.54-36.2-19.41-69.8-31.96-104.5C152.27,210.5,109.4,87,182.26,0h-57.26V1200Z" fill="#fff" isolation="isolate" opacity=".25"/><path id="_0" d="M125,1200h17.23c23.01-13,44.83-27.6,61.3-47.7,42.76-51.7,42.43-117.29,21.27-176.89-11.02-31.1-28.36-60.09-43.3-89.69-20.72-40.9-50.17-84.69-54.21-130.79-3.05-36.3,10.25-70.89,34.47-98.59,27.7-31.8,67.62-62.29,79.62-103.59,11.78-40.4-7.31-81.29-26.5-119.09-19.2-37.8-42.54-75.19-46.9-116.89-6.44-59.8,24.87-113.39,42.32-168.99,9.49-30.2,6.76-59-8.18-87.09-11.89-22.4-29.34-48-53.66-60.69h-23.45V1200Z" fill="#fff" isolation="isolate" opacity=".5"/><path id="_00" d="M0,1200H131.11c58.24-149.9,71.66-314.1,40.36-475.8-8.29-43-21.92-84.2-28.9-127.6-9.38-59,13.31-112.5,38.61-165.6,28.03-58.9,47.66-117,41.99-182.2C215.53,162.3,173.32,76.3,130.67,0H0V1200Z" fill="#fff"/></g></svg>