<?xml version="1.0" encoding="utf-8"?>
<!-- Generator: Adobe Illustrator 26.3.1, SVG Export Plug-In . SVG Version: 6.00 Build 0)  -->
<svg version="1.1" id="Layer_1" xmlns="http://www.w3.org/2000/svg" xmlns:xlink="http://www.w3.org/1999/xlink" x="0px" y="0px"
	 viewBox="0 0 120 1200" style="enable-background:new 0 0 120 1200;" xml:space="preserve">
<style type="text/css">
	.st0{opacity:0.25;fill:#FFFFFF;enable-background:new    ;}
	.st1{opacity:0.5;fill:#FFFFFF;enable-background:new    ;}
	.st2{fill:#FFFFFF;}
</style>
<path class="st0" d="M0,1199.7h46.3c22.2-47.8,32.2-103.6,28-158C68.9,971.3,41,905.4,36.8,834.9C32.4,761,53.7,687.3,72.1,616.7
	c18-69.3,24.9-138.3,13.1-209.4c-6-36.2-17.8-69.8-29.3-104.5C25,210.2-14.3,86.7,52.5-0.3H0V1199.7z"/>
<path class="st1" d="M0,1199.7h15.8c21.1-13,41.1-27.6,56.2-47.7c39.2-51.7,38.9-117.3,19.5-176.9C81.4,944,65.5,915,51.8,885.4
	c-19-40.9-46-84.7-49.7-130.8c-2.8-36.3,9.4-70.9,31.6-98.6c25.4-31.8,62-62.3,73-103.6c10.8-40.4-6.7-81.3-24.3-119.1
	s-39-75.2-43-116.9C33.5,256.6,62.2,203,78.2,147.4c8.7-30.2,6.2-59-7.5-87.1c-10.9-22.4-26.9-48-49.2-60.7H0V1199.7z"/>
<path class="st2" d="M0,1199.7h5.6C59,1049.8,71.3,885.6,42.6,723.9c-7.6-43-20.1-84.2-26.5-127.6c-8.6-59,12.2-112.5,35.4-165.6
	c25.7-58.9,43.7-117,38.5-182.2C83,162,44.3,76,5.2-0.3H0V1199.7z"/>
</svg>
