<?xml version="1.0" encoding="UTF-8"?><svg id="Layer_2" xmlns="http://www.w3.org/2000/svg" xmlns:xlink="http://www.w3.org/1999/xlink" viewBox="0 0 51.73 53.2"><defs><clipPath id="clippath"><path d="M25.89,11.03c-12.7,0-19.55-2.92-19.55-4.12S13.19,2.8,25.89,2.8s19.55,2.92,19.55,4.12-6.85,4.12-19.55,4.12Z" fill="none"/></clipPath></defs><g id="Icons"><g><g id="Grill"><path d="M47.83,5.42c-2.15,0-3.9,.85-3.9,1.89s1.75,1.89,3.9,1.89,3.9-.85,3.9-1.89-1.75-1.89-3.9-1.89Zm0,2.98c-1.65,0-2.66-.63-2.66-1.09s1.01-1.09,2.66-1.09,2.66,.63,2.66,1.09-1.01,1.09-2.66,1.09Z" fill="#70676c"/><path d="M3.9,5.42c-2.15,0-3.9,.85-3.9,1.89s1.75,1.89,3.9,1.89,3.9-.85,3.9-1.89-1.75-1.89-3.9-1.89Zm0,2.98c-1.65,0-2.66-.63-2.66-1.09s1.01-1.09,2.66-1.09,2.66,.63,2.66,1.09-1.01,1.09-2.66,1.09Z" fill="#70676c"/><path d="M23.76,25.83h3.06v25.83c0,.84-.68,1.53-1.53,1.53h0c-.84,0-1.53-.68-1.53-1.53V25.83h0Z" fill="#41353a"/><path d="M8.6,41.04v-3.06s8.87,4,16.68,4,16.68-4,16.68-4v3.06s-8.39,4-16.68,4-16.68-4-16.68-4Z" fill="#41353a"/><path d="M8.59,23.02h3.06v25.83c0,.84-.68,1.53-1.53,1.53h0c-.84,0-1.53-.68-1.53-1.53V23.02h0Z" transform="translate(16.62 -.81) rotate(25.24)" fill="#41353a"/><path d="M40.21,23.02h0c.84,0,1.53,.68,1.53,1.53v25.83h-3.06V24.55c0-.84,.68-1.53,1.53-1.53Z" transform="translate(92.23 52.76) rotate(154.76)" fill="#41353a"/><ellipse cx="25.89" cy="6.91" rx="21.05" ry="5.62" fill="#70676c"/><path d="M4.84,6.91H46.93c0,11.33-9.2,20.52-20.52,20.52h-1.05C14.04,27.44,4.84,18.24,4.84,6.91h0Z" fill="#70676c"/><path d="M25.89,11.03c-12.7,0-19.55-2.92-19.55-4.12S13.19,2.8,25.89,2.8s19.55,2.92,19.55,4.12-6.85,4.12-19.55,4.12Z" fill="#191717"/><g clip-path="url(#clippath)"><g><line x1="4" y1="9.87" x2="18.23" y2=".42" fill="none" stroke="#41353a" stroke-miterlimit="10"/><line x1="7.89" y1="10.18" x2="22.12" y2=".73" fill="none" stroke="#41353a" stroke-miterlimit="10"/><line x1="11.79" y1="10.49" x2="26.02" y2="1.04" fill="none" stroke="#41353a" stroke-miterlimit="10"/><line x1="15.69" y1="10.8" x2="29.92" y2="1.35" fill="none" stroke="#41353a" stroke-miterlimit="10"/><line x1="19.59" y1="11.12" x2="33.82" y2="1.67" fill="none" stroke="#41353a" stroke-miterlimit="10"/><line x1="23.48" y1="11.43" x2="37.71" y2="1.98" fill="none" stroke="#41353a" stroke-miterlimit="10"/><line x1="27.38" y1="11.74" x2="41.61" y2="2.29" fill="none" stroke="#41353a" stroke-miterlimit="10"/><line x1="31.28" y1="12.05" x2="45.51" y2="2.61" fill="none" stroke="#41353a" stroke-miterlimit="10"/><line x1="35.17" y1="12.37" x2="49.4" y2="2.92" fill="none" stroke="#41353a" stroke-miterlimit="10"/></g></g><path d="M25.36,27.44h1.05c6.17,0,11.68-2.73,15.45-7.04-19.62,1.99-30.65-2.98-35.75-6.42,2.88,7.85,10.4,13.46,19.25,13.46Z" fill="#5b5257"/></g><g><path d="M26.72,3.81s.15,.84,.01,.95-2.68,.45-2.68,.45l-2.23-.22,.35-1.28,4.05-.32,.5,.43Z" fill="#e08980"/><path d="M12.65,6.01s-.38,1.42,.25,1.74,3.25,2.31,6.88,1.91,4.34-1.8,4.26-3.37-11.4-.28-11.4-.28Z" fill="#e08980"/><path d="M26.55,3.36c-1.06-1.3-8.27-.27-8.27-.27-7.21,1.27-7.59,4.35-.59,5.63,7,1.27,6.62-3.35,6.24-3.84-.38-.49,3.69-.22,2.62-1.52Zm-4.6,.81c-.71,0-1.28-.2-1.28-.46s.57-.46,1.28-.46,1.28,.2,1.28,.46-.57,.46-1.28,.46Z" fill="#ea998c"/><path d="M19.9,8.7c-.56,0-1.2-.07-1.91-.19-2.99-.54-4.69-1.46-4.68-2.51,.02-1.11,1.99-2.12,5.26-2.7h0s2.58-.36,4.76-.36,2.49,.37,2.59,.49c.5,.61-.29,.73-1.29,.88-.61,.09-1.64,.25-1.34,.63,.24,.31,.45,2.49-1.48,3.4-.53,.25-1.15,.37-1.9,.37h0Zm2.05-5.68c-1.07,0-1.94,.31-1.94,.69s.87,.69,1.94,.69,1.94-.31,1.94-.69-.87-.69-1.94-.69Z" fill="#bc3115"/><path d="M17.99,8.5c.28,.05,.55,.09,.8,.12-.63-.47-1.42-1.25-2.27-2.53-.76-1.16,.16-2.05,1.61-2.71-3,.59-4.8,1.55-4.82,2.61-.02,1.05,1.69,1.96,4.68,2.51Z" fill="#cc3b23"/><g><path d="M19.16,3.23c-.36,.04-.58,.07-.58,.07-.08,.01-.15,.03-.23,.04,.94,.09,1.74,.2,1.67,.37,0-.11,.08-.22,.22-.31-.32-.06-.68-.12-1.07-.18Z" fill="#ea998c"/><path d="M24.87,4.27c-.53-.01-1.16-.06-1.25-.2-.21,.13-.53,.23-.91,.28,.42,0,.8,.03,.93,.15h0c.29-.1,.69-.16,.99-.2,.08-.01,.16-.02,.24-.04Z" fill="#ea998c"/><path d="M20.02,3.71c-.19,.47-2.16,3.49-6.05,3.37,.35,.27,.83,.52,1.44,.75,.83-.55,5.33-3.5,5.94-3.46h.03c-.78-.09-1.36-.35-1.36-.66Z" fill="#ea998c"/></g></g><g><path d="M36.42,2.86s0,.02,.02,.05c-.01-.02-.02-.03-.03-.05h0Z" fill="#cc3b23"/><path d="M39.44,6.41c.26,.17,.32,.51,.15,.76-.06,.1-.16,.16-.25,.19,0,.11-.02,.21-.08,.31-.17,.25-.51,.32-.76,.15s-.31-.5-.15-.75l-1.56-1.04,.34-.51,1.56,1.04c.17-.25,.51-.32,.76-.16Z" fill="#eaeaea"/><path d="M35.39,1.79c.45,.3,.78,.69,1,1.13,.01,.02,.02,.03,.03,.05h0c.12,.24,.55,1.15,.74,1.67l.73,.49c.33,.22,.41,.66,.2,.99l-.42,.63c-.22,.33-.66,.42-.99,.2l-.73-.49s-.88,.11-2.09-.13c0,0,0,0-.01,0-.4-.06-.8-.21-1.17-.45-1.24-.83-1.63-2.41-.89-3.53s2.36-1.36,3.6-.53Z" fill="#d37a3d"/><path d="M33.85,6.32c1.21,.25,2.09,.13,2.09,.13l.73,.49c.33,.22,.77,.13,.99-.2l.02-.03c-3.57-.9-5.58-2.89-6.19-3.68-.25,1.01,.19,2.16,1.18,2.83,.37,.24,.77,.4,1.17,.45,0,0,0,0,.01,0Z" fill="#c66f34"/><circle cx="33.92" cy="2.16" r=".35" fill="#e28b50"/><circle cx="33.28" cy="2.51" r=".14" fill="#e28b50"/><circle cx="33.98" cy="2.91" r=".11" fill="#e28b50"/></g><g><path d="M32.35,4.98s.01,.01,.03,.03c-.01,0-.02-.02-.03-.03h0Z" fill="#cc3b23"/><path d="M35.35,6.84c.22,.06,.35,.29,.29,.51-.02,.08-.08,.15-.14,.2,.03,.08,.04,.16,.01,.24-.06,.22-.29,.35-.51,.29s-.34-.29-.28-.51l-1.37-.39,.13-.44,1.37,.39c.06-.22,.29-.35,.51-.29Z" fill="#eaeaea"/><path d="M31.36,4.44c.39,.11,.72,.32,.98,.58,.01,0,.02,.02,.03,.03h0c.14,.14,.66,.7,.92,1.03l.64,.18c.29,.08,.45,.38,.37,.67l-.16,.55c-.08,.29-.38,.45-.67,.37l-.64-.18s-.61,.29-1.54,.39c0,0,0,0,0,0-.3,.05-.63,.03-.95-.06-1.09-.31-1.74-1.36-1.46-2.34s1.39-1.53,2.48-1.22Z" fill="#d37a3d"/><path d="M31.3,8.07c.93-.1,1.54-.39,1.54-.39l.64,.18c.29,.08,.59-.08,.67-.37v-.03c-2.78,.18-4.69-.8-5.31-1.22,.05,.79,.63,1.52,1.51,1.77,.32,.09,.64,.11,.95,.06,0,0,0,0,0,0Z" fill="#c66f34"/><circle cx="30.38" cy="5.05" r=".26" fill="#e28b50"/><circle cx="30" cy="5.45" r=".11" fill="#e28b50"/><circle cx="30.6" cy="5.58" r=".09" fill="#e28b50"/></g></g></g></svg>