<?xml version="1.0" encoding="UTF-8"?><svg id="Layer_2" xmlns="http://www.w3.org/2000/svg" viewBox="0 0 36.24 40.86"><g id="Icons"><g id="Beer"><path d="M19,19.91c-1.79,8.1-2.1,7.79-2.1,10.03v10.29c0,.35-.29,.64-.64,.64H4.87c-.35,0-.64-.29-.64-.64v-10.29c0-2.24-.31-1.93-2.11-10.03-1.52-6.87,.02-12.91,.53-14.58,.08-.27,.34-.46,.62-.45l7.29,.12,7.28-.12c.29,0,.54,.18,.62,.45,.5,1.68,2.04,7.71,.52,14.58Z" fill="#d1ad15"/><g><path d="M17.6,20.49c-1.49,7.44-1.76,7.15-1.76,9.21v9.45c0,.32-.24,.59-.53,.59H5.81c-.29,0-.53-.26-.53-.59v-9.45c0-2.06-.26-1.77-1.76-9.21-1.27-6.31,.02-11.86,.44-13.4,.07-.25,.28-.42,.52-.42l6.09,.11,6.08-.11c.24,0,.45,.17,.52,.42,.42,1.54,1.71,7.08,.44,13.4Z" fill="#e2bc1b"/><path d="M10.26,6.78l-5.78-.11c-.24,0-.45,.17-.52,.42-.42,1.54-1.71,7.08-.44,13.4,1.5,7.44,1.76,7.15,1.76,9.21v9.45c0,.32,.24,.59,.53,.59h5.17c.14-3.34,.09-8.66-1.18-13.22-1.6-5.74-.2-15.77,.46-19.74Z" fill="#edcf51"/></g><path d="M19.6,3.73c0,.71-.3,1.4-.79,1.91-1.7,1.71-2.39-.3-2.39-.3h-.99c-.14,.42-.36,.81-.65,1.15-.23,.28-.51,.52-.82,.72-1.68,1.06-3.89,.55-4.94-1.14-.29,.09-.6,.15-.9,.15-.57,0-1.11-.17-1.58-.49-.08-.05-.16-.11-.23-.16-.05,.08-.11,.15-.17,.23-.01,.02-.04,.04-.05,.06-.35,1.75-1.93,.42-2.3,.79s1.67,4.53-.61,4.89c-1.72,.27-2.67-1.29-2.67-2.7s.81-2.98,.81-2.98C.16,4.56,.25,2.58,1.49,1.38,2.76,.16,4.78,.21,5.99,1.5c1.02-1.19,2.79-1.31,3.97-.29,1.31-.96,3.1-.91,4.36,.12,.58-.52,1.33-.81,2.11-.81,1.76,0,3.18,1.44,3.18,3.21Z" fill="#fff" stroke="#ededed" stroke-miterlimit="10"/></g><g id="Beer-2"><path d="M22.2,20.45h12.39v18.29c0,1.17-.95,2.12-2.12,2.12h-8.15c-1.17,0-2.12-.95-2.12-2.12V20.45h0Z" fill="#d1ad15"/><g><path d="M23.53,22.27h9.62v15.74c0,.95-.77,1.73-1.73,1.73h-6.16c-.95,0-1.73-.77-1.73-1.73v-15.74h0Z" fill="#e2bc1b"/><path d="M27.41,39.73V22.27h-3.88v15.8c0,.92,.8,1.66,1.79,1.66h2.09Z" fill="#edcf51"/></g><path d="M21.05,19.01c0,.61,.23,1.19,.61,1.62,1.31,1.46,1.84-.26,1.84-.26h.76c.11,.36,.28,.69,.5,.98,.18,.24,.39,.44,.63,.61,1.29,.91,2.99,.47,3.8-.97,.22,.08,.46,.13,.7,.13,.44,0,.85-.15,1.21-.42,.07-.04,.12-.09,.18-.14,.04,.07,.09,.13,.13,.19,.01,.02,.03,.03,.04,.05,.27,1.49,1.49,.36,1.77,.67s-1.29,3.85,.47,4.16c1.32,.23,2.06-1.1,2.06-2.3s-.63-2.53-.63-2.53c.89-1.1,.82-2.79-.14-3.8-.98-1.04-2.53-1-3.46,.1-.78-1.01-2.15-1.12-3.05-.25-1.01-.81-2.39-.77-3.36,.1-.45-.44-1.02-.69-1.62-.69-1.35,0-2.45,1.22-2.45,2.73Z" fill="#fff" stroke="#ededed" stroke-miterlimit="10"/></g></g></svg>