<?xml version="1.0" encoding="UTF-8"?><svg id="Layer_2" xmlns="http://www.w3.org/2000/svg" xmlns:xlink="http://www.w3.org/1999/xlink" viewBox="0 0 52.51 52.51"><g id="Icons"><g><g><circle cx="26.25" cy="26.25" r="26.25" fill="#a5cbf2"/><path d="M26.25,45.99c-10.88,0-19.73-8.85-19.73-19.73S15.37,6.52,26.25,6.52s19.73,8.85,19.73,19.73-8.85,19.73-19.73,19.73Z" fill="#f5f4f5"/><path d="M52.51,26.25C52.51,11.75,40.75,0,26.25,0V52.51c14.5,0,26.25-11.75,26.25-26.25Z" fill="#82b1db"/><path d="M26.25,6.52V45.99c10.88,0,19.73-8.85,19.73-19.73S37.14,6.52,26.25,6.52Z" fill="#e5e5e5"/></g><g><path d="M30.69,13.89c-1.61-5.51-12.52-1.15-12.52-1.15-10.91,5.4-11.49,18.49-.9,23.89,10.59,5.4,10.02-14.24,9.44-16.31-.57-2.07,5.58-.92,3.97-6.43Zm-6.96,3.44c-1.07,0-1.94-.87-1.94-1.94s.87-1.94,1.94-1.94,1.94,.87,1.94,1.94-.87,1.94-1.94,1.94Z" fill="#ea998c"/><path d="M20.62,36.57c-.85,0-1.82-.28-2.9-.83-4.52-2.31-7.1-6.19-7.08-10.64,.03-4.72,3.01-9,7.96-11.46h0s3.91-1.54,7.19-1.54,3.77,1.56,3.92,2.07c.75,2.57-.44,3.08-1.94,3.73-.93,.4-2.48,1.06-2.03,2.69,.37,1.32,.68,10.57-2.25,14.42-.8,1.05-1.74,1.56-2.88,1.56h0Zm3.11-24.11c-1.62,0-2.94,1.32-2.94,2.94s1.32,2.94,2.94,2.94,2.94-1.32,2.94-2.94-1.32-2.94-2.94-2.94Z" fill="#bc3115"/><path d="M17.73,35.74c.42,.22,.82,.38,1.21,.51-.96-2-2.15-5.29-3.43-10.74-1.16-4.91,.25-8.69,2.43-11.49-4.54,2.5-7.26,6.58-7.29,11.07-.03,4.46,2.55,8.34,7.08,10.64Z" fill="#cc3b23"/><g><path d="M19.5,13.33c-.55,.18-.88,.31-.88,.31-.12,.06-.23,.12-.34,.18,1.42,.36,2.63,.85,2.52,1.58,0-.48,.13-.92,.33-1.32-.48-.24-1.03-.5-1.62-.75Z" fill="#ea998c"/><path d="M28.14,17.74c-.81-.06-1.76-.26-1.9-.84-.32,.53-.79,.96-1.37,1.2,.64,0,1.21,.12,1.41,.65h0c.45-.4,1.05-.67,1.5-.86,.12-.05,.24-.11,.36-.16Z" fill="#ea998c"/><path d="M20.79,15.4c-.29,1.98-3.26,14.81-9.16,14.29,.53,1.15,1.26,2.22,2.18,3.18,1.26-2.33,8.06-14.84,8.99-14.69,.01,0,.03,0,.05,0-1.19-.38-2.06-1.48-2.06-2.79Z" fill="#ea998c"/></g></g><g><g><rect x="36.72" y="18.62" width="1.93" height="5.02" rx=".72" ry=".72" fill="#1b5b12"/><path d="M41.76,18.38c-.15-.69-.56-1.26-1.16-1.59-.21-.73-.85-1.27-1.65-1.27-.26,0-.5,.06-.72,.16-.28-.24-.63-.4-1.03-.4-.06,0-.1,.03-.15,.03-.25-.52-.76-.88-1.38-.88-.85,0-1.53,.69-1.53,1.53,0,.22,.05,.43,.14,.62-.51,.4-.85,.99-.85,1.68,0,.11,.05,.2,.06,.3-.48,.16-.82,.6-.82,1.13,0,.67,.54,1.21,1.21,1.21,.45,0,.82-.25,1.03-.61,.22,.08,.45,.14,.7,.14,.63,0,1.19-.28,1.59-.71,.35,.91,1.22,1.56,2.25,1.56,.54,0,1.02-.21,1.42-.51,.17,.08,.35,.13,.55,.13,.72,0,1.3-.58,1.3-1.3,0-.59-.41-1.07-.95-1.23Z" fill="#247c1a"/><path d="M35.53,17.86c-1.16-.94-1.27-2-.93-2.99-.28,.28-.45,.66-.45,1.09,0,.22,.05,.43,.14,.62-.51,.4-.85,.99-.85,1.68,0,.11,.05,.2,.06,.3-.48,.16-.82,.6-.82,1.13,0,.67,.54,1.21,1.21,1.21,.45,0,.82-.25,1.03-.61,.22,.08,.45,.14,.7,.14,.63,0,1.19-.28,1.59-.71,.35,.91,1.22,1.56,2.25,1.56,.54,0,1.02-.21,1.42-.51,.17,.08,.35,.13,.55,.13,.25,0,.47-.09,.67-.21-1.2-.58-3.83-.64-6.55-2.84Z" fill="#1b5b12"/></g><g><rect x="40.74" y="21.28" width=".88" height="3.21" rx=".4" ry=".4" transform="translate(24.56 -21.2) rotate(40.28)" fill="#1b5b12"/><path d="M43.74,22.74c.23-.38,.32-.78,.25-1.12,.23-.42,.23-.87-.05-1.11-.09-.08-.2-.12-.32-.13,0-.2-.06-.38-.19-.5-.02-.02-.05-.02-.07-.03,.13-.33,.1-.66-.11-.84-.29-.25-.82-.12-1.17,.29-.09,.11-.16,.22-.21,.34-.34,.04-.71,.23-.99,.57-.04,.05-.07,.11-.1,.17-.23-.06-.54,.05-.76,.31-.28,.33-.31,.75-.08,.95,.16,.13,.39,.12,.61,0,.05,.1,.1,.2,.18,.27,.22,.19,.53,.22,.85,.12-.25,.55-.22,1.12,.14,1.43,.19,.16,.44,.2,.71,.17,.03,.09,.07,.17,.14,.23,.25,.21,.69,.1,.99-.25,.25-.29,.3-.64,.18-.88Z" fill="#247c1a"/><path d="M41.78,20.65c-.02-.8,.38-1.35,.91-1.73-.21,.05-.43,.19-.61,.4-.09,.11-.16,.22-.21,.34-.34,.04-.71,.23-.99,.57-.04,.05-.07,.11-.1,.17-.23-.06-.54,.05-.76,.31-.28,.33-.31,.75-.08,.95,.16,.13,.39,.12,.61,0,.05,.1,.1,.2,.18,.27,.22,.19,.53,.22,.85,.12-.25,.55-.22,1.12,.14,1.43,.19,.16,.44,.2,.71,.17,.03,.09,.07,.17,.14,.23,.09,.07,.2,.1,.32,.09-.18-.64-1.07-1.45-1.11-3.32Z" fill="#1b5b12"/></g><g><rect x="34.66" y="22.01" width="1.39" height="3.12" rx=".48" ry=".48" transform="translate(70.71 47.13) rotate(-180)" fill="#1b5b12"/><path d="M32.44,21.86c.11-.43,.4-.78,.83-.99,.15-.45,.61-.79,1.18-.79,.18,0,.36,.04,.51,.1,.2-.15,.45-.25,.74-.25,.04,0,.07,.02,.11,.02,.18-.32,.55-.55,.99-.55,.61,0,1.1,.43,1.1,.95,0,.14-.04,.27-.1,.38,.36,.25,.61,.61,.61,1.05,0,.07-.03,.12-.04,.19,.34,.1,.59,.37,.59,.7,0,.41-.39,.75-.87,.75-.32,0-.59-.16-.74-.38-.16,.05-.32,.09-.5,.09-.45,0-.85-.17-1.14-.44-.25,.56-.87,.97-1.61,.97-.39,0-.73-.13-1.02-.32-.12,.05-.25,.08-.39,.08-.51,0-.93-.36-.93-.81,0-.37,.29-.67,.68-.76Z" fill="#247c1a"/><path d="M36.9,21.54c.83-.58,.91-1.24,.66-1.85,.2,.17,.33,.41,.33,.67,0,.14-.04,.27-.1,.38,.36,.25,.61,.61,.61,1.05,0,.07-.03,.12-.04,.19,.34,.1,.59,.37,.59,.7,0,.41-.39,.75-.87,.75-.32,0-.59-.16-.74-.38-.16,.05-.32,.09-.5,.09-.45,0-.85-.17-1.14-.44-.25,.56-.87,.97-1.61,.97-.39,0-.73-.13-1.02-.32-.12,.05-.25,.08-.39,.08-.18,0-.34-.05-.48-.13,.86-.36,2.74-.4,4.69-1.76Z" fill="#1b5b12"/></g><g><path d="M32.81,25.26l.04-.03c.12-.09,.14-.25,.03-.35l-1.12-1.14c-.1-.11-.28-.12-.41-.03l-.04,.03c-.12,.09-.14,.25-.03,.35l1.12,1.14c.1,.11,.28,.12,.41,.03Z" fill="#1b5b12"/><path d="M30.26,24.4c-.17-.24-.23-.49-.18-.7-.16-.26-.16-.54,.04-.69,.06-.05,.14-.07,.23-.08,0-.12,.04-.24,.14-.31,.01-.01,.03-.01,.05-.02-.09-.2-.07-.41,.08-.52,.21-.16,.59-.07,.84,.18,.07,.07,.11,.14,.15,.21,.24,.03,.51,.14,.71,.35,.03,.03,.05,.07,.07,.1,.17-.04,.38,.03,.54,.19,.2,.2,.22,.47,.06,.59-.11,.08-.28,.07-.44,0-.03,.06-.07,.13-.13,.17-.16,.12-.38,.13-.61,.08,.18,.34,.16,.7-.1,.89-.14,.1-.32,.12-.51,.11-.02,.06-.05,.1-.1,.14-.18,.13-.5,.06-.71-.16-.18-.18-.22-.4-.13-.55Z" fill="#247c1a"/><path d="M31.66,23.1c.01-.5-.27-.84-.65-1.07,.15,.03,.31,.12,.44,.25,.07,.07,.11,.14,.15,.21,.24,.03,.51,.14,.71,.35,.03,.03,.05,.07,.07,.1,.17-.04,.38,.03,.54,.19,.2,.2,.22,.47,.06,.59-.11,.08-.28,.07-.44,0-.03,.06-.07,.13-.13,.17-.16,.12-.38,.13-.61,.08,.18,.34,.16,.7-.1,.89-.14,.1-.32,.12-.51,.11-.02,.06-.05,.1-.1,.14-.06,.05-.14,.06-.23,.06,.13-.4,.77-.9,.79-2.06Z" fill="#1b5b12"/></g><g><path d="M38.95,24.96l.05-.02c.15-.06,.22-.19,.16-.29l-.66-1.08c-.06-.1-.23-.13-.38-.07l-.05,.02c-.15,.06-.22,.19-.16,.29l.66,1.08c.06,.1,.23,.13,.38,.07Z" fill="#1b5b12"/><path d="M36.82,23.96c-.08-.22-.05-.43,.07-.61-.06-.23,.04-.47,.28-.57,.08-.03,.16-.05,.24-.05,.04-.1,.12-.19,.24-.25,.02,0,.04,0,.05-.01-.02-.18,.08-.35,.26-.43,.26-.11,.58,0,.73,.24,.04,.06,.06,.13,.07,.19,.22,.05,.43,.17,.55,.37,.02,.03,.02,.06,.03,.09,.17-.01,.35,.07,.45,.22,.12,.19,.05,.42-.15,.5-.13,.06-.29,.03-.42-.04-.05,.05-.11,.1-.19,.13-.19,.08-.41,.07-.6,0,.05,.31-.09,.6-.41,.74-.16,.07-.35,.07-.52,.03-.04,.04-.08,.08-.14,.11-.22,.09-.5,0-.62-.21-.1-.17-.07-.36,.07-.47Z" fill="#247c1a"/><path d="M38.62,23.01c.19-.42,.04-.73-.24-.97,.13,.04,.25,.13,.33,.25,.04,.06,.06,.13,.07,.19,.22,.05,.43,.17,.55,.37,.02,.03,.02,.06,.03,.09,.17-.01,.35,.07,.45,.22,.12,.19,.05,.42-.15,.5-.13,.06-.29,.03-.42-.04-.05,.05-.11,.1-.19,.13-.19,.08-.41,.07-.6,0,.05,.31-.09,.6-.41,.74-.16,.07-.35,.07-.52,.03-.04,.04-.08,.08-.14,.11-.08,.03-.16,.03-.24,.03,.26-.32,1.05-.68,1.48-1.65Z" fill="#1b5b12"/></g></g><g><image width="10" height="11" transform="translate(28.89 30.15)" xlink:href="coking1.png"/><path d="M32.19,40.54c-1.7,0-2.73-1.07-2.88-3.02-.11-1.37,.54-4.87,1.36-5.91,.16-.2,.36-.28,.68-.28s.72,.09,1.14,.18c.5,.11,1.02,.22,1.55,.22,.16,0,.32-.01,.47-.03,.14-.02,.28-.03,.42-.03,2.11,0,2.56,2.82,2.65,4.03,.12,1.5,.09,2.21-.68,3.18-.61,.77-1.96,1.31-4.01,1.61-.25,.04-.48,.05-.71,.05h0Z" fill="#edd591"/><path d="M34.93,31.66c-.13,0-.27,.01-.42,.03-.15,.02-.31,.03-.47,.03-.51,0-1-.1-1.48-.21-.6,.85-1.73,3.61-.8,5.38,.95,1.81,2.21,2.12,3.12,3.13,.94-.3,1.63-.68,2.02-1.16,.77-.96,.8-1.67,.68-3.18-.1-1.21-.54-4.03-2.65-4.03Z" fill="#e2c888"/><circle cx="31.71" cy="33.57" r=".33" fill="#d3b771"/><circle cx="31.18" cy="34.46" r=".2" fill="#d3b771"/><circle cx="32.09" cy="35.32" r=".18" fill="#d3b771"/><circle cx="31.76" cy="32.55" r=".24" fill="#d3b771"/><circle cx="32.28" cy="33.1" r=".15" fill="#d3b771"/><circle cx="33.06" cy="32.62" r=".13" fill="#d3b771"/></g><g><image width="11" height="11" transform="translate(31.89 28.15)" xlink:href="coking2.png"/><path d="M33.96,37.3c-1.49-.84-1.85-2.27-1.03-4.05,.58-1.24,2.86-3.98,4.08-4.48,.24-.1,.45-.07,.73,.09s.59,.43,.91,.71c.38,.34,.78,.69,1.24,.95,.14,.08,.28,.15,.43,.2,.14,.05,.26,.11,.38,.18,1.84,1.04,.85,3.71,.33,4.82-.63,1.37-1.01,1.97-2.15,2.43-.91,.37-2.35,.18-4.28-.56-.23-.09-.45-.19-.64-.3h0Z" fill="#edd591"/><path d="M34.99,37.73c1.73,.61,3.05,.77,3.9,.43,1.15-.46,1.52-1.06,2.15-2.43,.51-1.1,1.51-3.78-.33-4.82-.12-.07-.24-.12-.38-.18-.01,0-.03-.01-.04-.02-.47,.83-1.34,2.14-2.91,3.95-1.09,1.25-1.89,2.25-2.38,3.07Z" fill="#e2c888"/><circle cx="37.4" cy="36.32" r=".33" fill="#d3b771"/><circle cx="37.18" cy="29.89" r=".2" fill="#d3b771"/><circle cx="37.63" cy="30.54" r=".18" fill="#d3b771"/><circle cx="37.94" cy="35.46" r=".24" fill="#d3b771"/><circle cx="38.13" cy="36.19" r=".15" fill="#d3b771"/><circle cx="39.04" cy="36.16" r=".13" fill="#d3b771"/></g></g></g></svg>