<?xml version="1.0" encoding="UTF-8"?><svg id="Layer_2" xmlns="http://www.w3.org/2000/svg" viewBox="0 0 36.37 41.83"><g id="Icons"><g id="Letter"><rect y="16.68" width="36.32" height="25.15" fill="#a5cbf2"/><polygon points="18.2 0 36.37 16.68 .04 16.68 18.2 0" fill="#207fdf"/><polygon points="18.29 31.26 36.12 16.68 .46 16.68 18.29 31.26" fill="#14528f"/><polygon points="18.29 31.26 36.12 16.68 .46 16.68 18.29 31.26" fill="#14528f"/><polygon points="19.75 29.78 16.82 29.78 6.66 21.42 6.66 2.53 29.67 2.53 29.67 21.62 19.75 29.78" fill="#fff" stroke="#ededed" stroke-linejoin="round"/><polygon points="18.16 28.3 0 41.83 36.32 41.83 18.16 28.3" fill="#d2e5f8"/><g><line x1="10.51" y1="8.34" x2="26.07" y2="8.34" fill="none" stroke="#70676c" stroke-miterlimit="10"/><line x1="10.51" y1="11.93" x2="26.07" y2="11.93" fill="#fff" stroke="#8f898c" stroke-linejoin="round"/><line x1="10.51" y1="15.52" x2="26.07" y2="15.52" fill="#fff" stroke="#afaaad" stroke-linejoin="round"/><line x1="10.51" y1="19.1" x2="26.07" y2="19.1" fill="#fff" stroke="#cecbcd" stroke-linejoin="round"/><line x1="10.51" y1="22.69" x2="26.07" y2="22.69" fill="#fff" stroke="#ededed" stroke-linejoin="round"/></g></g></g></svg>