<?xml version="1.0" encoding="UTF-8"?><svg id="Layer_2" xmlns="http://www.w3.org/2000/svg" xmlns:xlink="http://www.w3.org/1999/xlink" viewBox="0 0 389.69 437.15"><defs><linearGradient id="linear-gradient" x1="189.32" y1="343.72" x2="189.32" y2="230.79" gradientTransform="matrix(1, 0, 0, 1, 0, 0)" gradientUnits="userSpaceOnUse"><stop offset="0" stop-color="#b3b3b3"/><stop offset="1" stop-color="#e5e5e5"/></linearGradient><linearGradient id="linear-gradient-2" x1="186.96" y1="294.88" x2="186.96" y2="280.63" gradientTransform="matrix(1, 0, 0, 1, 0, 0)" gradientUnits="userSpaceOnUse"><stop offset="0" stop-color="#e5e5e5"/><stop offset="1" stop-color="#f2f2f2"/></linearGradient></defs><g id="Sitting"><g id="Person"><g id="Hair_Foundation"><path d="M115.16,104.36s-16.05,11.92-7.11,13.07c8.94,1.15,15.36-10.78,15.36-10.78,0,0-27.29,18.11-8.25-2.29Z" fill="#fa0"/><path d="M246.81,109.02s6.26,19.26-7.08,19.03-12.06-9.24-12.06-9.24c0,0,17.73,17.9,19.13-9.79Z" fill="#fa0"/><path d="M247.1,74.54c2.75,4.15,1.79,9.85-1.29,12.71-.55,.51-.9,1.05-1.08,1.6v.04c-.2,.56-.2,1.15-.07,1.72v.02c.11,.5,.31,.99,.57,1.49h0c.81,1.54,2.26,3.03,3.63,4.33,1.07,1.01,.89,2.33,.37,3.82h0c-.89,2.5-2.72,5.41-1,7.86,2.75,3.89-4.36,3.89-6.8,5.18-2.43,1.3-4.21-.38-2.27,.91,1.95,1.3,.97,4.16,0,8.04-.96,3.89-3.23,.52-10.85,9.87-7.61,9.34-14.9,.38-19.59-4.81-4.7-5.18,.16-16.21,.16-16.21,0,0,3.54-9.87,5.46-12.77-2.06,3.67,38.44,3.97,14.69,17.71-2.45,1.41-4.26-.41-2.99-2.18,2.67-3.7,2.6-9.11,2.6-9.11-1.29,2.86-8.75,8.56-11.51,6.75-2.09-1.38,1.63-5.01,4.52-8.21l.02-.02c.9-1,1.73-1.96,2.27-2.79,1.45-2.25-1.03-2.78-5.73-3.71-2.46-.48-5.52-1.06-8.95-2.05-.23-.06-.48-.14-.71-.2-4.39-1.32-4.68-3.5-3.08-5.96,1.74-2.72,5.75-5.78,9.09-8.43h.01s.01-.02,.02-.02c.02,0,.04-.03,.07-.05,.77-.62,1.49-1.2,2.15-1.76,6.16-5.18,1.78-10.64-2.91-10.89-4.7-.26-12.31-3.76-14.42-8.48-2.02-4.53,3.86-13.08,4.48-17.44,.02-.15,.04-.31,.04-.44,.01-.07,.01-.1,.01-.1,.17-4.15-8.12-12.47-18.5-14.92-9.99-2.35,1.97,6.27,1.97,6.27-.85,.2-12.09,10.41-12.94,10.47-5.09,.31-8.71-.55-11.53-3.07-.69-.6-1.31-1.31-1.92-2.11-3.07-4.15-11.17,2.6-6.31,11.16,.19,.34,.36,.67,.51,.99,.01,0,.01,.02,.01,.02,.65,1.32,1.01,2.56,1.15,3.69v.02c.73,5.68-3.81,9.21-5.88,12.01-.16,.22-.32,.44-.47,.68-.3,.45-.56,.9-.79,1.39,0,0,.01,0,0,.02-1.25,2.55-1.81,5.57-1.23,7.79h0c.18,.69,.47,1.3,.87,1.79,.73,.9,1.2,3.2,1.39,6.02v.02c.17,2.56,.1,5.54-.24,8.31h0c-.37,3.04-1.07,5.8-2.12,7.45-.86,1.33-1.03,2.73-.85,4.06v.04c.19,1.25,.69,2.44,1.26,3.44h0c.94,1.66,2.06,2.83,2.17,2.95,.01,0,.01,0,.01,0l-7.13,5.84s-.32,.36-.83,.96c-1.26,1.47-3.69,4.34-5.25,6.33h0c-.14,.18-.28,.34-.39,.49-.01,0-.01,.02-.02,.03-2.14,2.72-10.36,5.03-14.96,5.94,1.85,1.55,14.01,3.11,14.01,3.11,0,0-11.66,.25-18.78-2.85-7.13-3.11,3.72-11.42,7.61-14.14,3.89-2.72,2.11-6.09-4.86-3.63-6.78,2.4-10.65-3.07-10.84-3.36,3.08,2.05,6.79,0,6.79,0,0,0,6.45-7.35,2.49-6.06-.02,0-.05,.02-.08,.03-.23,.08-.49,.19-.78,.32-5.12,2.34-9.56,1.31-10.38,1.08,2.38,.56,9.42-2.77,9.13-4.06-.02-.1-.1-.19-.2-.26-1.62-1.04,.48-11.41,.48-11.41,0,0-.65-1.24-1.4-2.93-.05-.09-.1-.19-.13-.28-1.15-2.6-2.48-6.13-2.19-7.95,.49-3.11,6.31-5.06,5.51-6.61-.82-1.56-.33-3.11,2.74-5.58,3.08-2.46,6.48-4.93,4.38-10.63-2.1-5.71,7.46-27.61,7.46-27.61C149.96-.88,178.74-1.75,192.78,1.11c15.6,3.17,37.35,16.29,40.95,18.8,10.66,7.44-6.4,19.01-.24,25.37,4.64,4.8,5.31,4.71,9.43,5.61,1.35,.3,2.6,.71,3.71,1.48,4.53,3.11,5.67,9.85,3.89,14.65-1.79,4.8-6.16,3.37-3.41,7.53Z" fill="#fa0"/><path d="M208.33,11.8s-36.2-12.61-49.44-2.98-14.08,5.71-27.87,16.27-15.4,20.7-8.98,28.59c6.42,7.88,6.42,18.43-5.27,27.14-11.69,8.71-16.37,26.04-4.52,32.4,11.85,6.36,26.04,10.67,13.45,15.16s-20.86,.42-17.3-5.34c-3.85,7.26,1.23,14.95,9.75,13.09,8.52-1.86,16.44-10.08,15.64-1.82-.8,8.26,8.01,9.99,13.39,5.2s11.33-10.42,24.86-5.2,23.64,6.19,36.24,1.69c12.6-4.5-.45-4.38,19.72,1.87s32.78,12.4,29.8,1.64c-2.98-10.76-6.32-10.03-10.04-9.71,6.94-.71,11.74,13.4,6.19,12.48-5.55-.92-21.37-8.94-17.02-17.54,4.36-8.6,21.1-2.41,15.13-17.55s-18.54-28.89-14.09-35.31,14.31-2.52,9.73-11.92c-4.59-9.4-14.06-48.84-39.36-48.15Z" fill="#ffbc00"/><path d="M192.94,78.93s-7.66-13.93-15.9-12.13c-13.62,2.97-32.87,13.86-30.79,20.65s10.98,16.9-.8,17.89c-11.78,1-21.75-.19-20.5,5.09s21.19,12.62,21.19,12.62c0,0-14.55-7.76-14.69-10.77-.14-3.01,8.58,2.34,15.24-3.06,6.66-5.4,13.27-8.49,8.24-16.17s4.63-16.23,17.96-17.56c13.6-1.36,20.05,3.43,20.05,3.43Z" fill="#fa0"/></g><g id="Socks"><path d="M90.55,402.63s-10.81-1.02-15.76,6.41c-4.95,7.43-4.13,11.68,.14,12.51,4.27,.83,49.25,5.64,61.5,5.37s13.82-2.22,13.82-2.22v-3.69l-58.53-20.22-1.16,1.86Z" fill="#e1d9d5"/><path d="M136.42,424.5c-12.24,.28-57.23-4.54-61.5-5.37-1.85-.36-3.04-1.36-3.41-2.98-.53,3.06,.78,4.87,3.41,5.38,4.27,.83,49.25,5.64,61.5,5.37,12.24-.28,13.82-2.22,13.82-2.22v-2.4s-1.57,1.95-13.82,2.22Z" fill="#d6ccc8"/><path d="M215.7,407.82s2.64,24.67,1.57,28.5c-.33,1.19,9.68,1,21.51,.02,11.83-.98,66.77-3.27,77.96-7.03,11.19-3.76,10.64-5.5,12.02-8.71-.83-7.61-1.83-15.13-7.7-18.62-5.87-3.49-38.8-9.08-40.17-9.08s-32.1,11.65-32.1,11.65l-33.07,3.27Z" fill="#e1d9d5"/><path d="M319.15,424.4c-11.19,3.76-66.13,6.05-77.96,7.03-11.83,.98-21.84,1.17-21.51-.02,.78-2.79-.41-16.67-1.11-23.98l-2.86,.28s2.64,24.67,1.57,28.5c-.33,1.19,9.68,1,21.51,.02,11.83-.98,66.77-3.27,77.96-7.03,11.19-3.76,10.64-5.5,12.02-8.71-.02-.18-.04-.36-.06-.54-1.46,1.27-4.12,2.62-9.55,4.45Z" fill="#d6ccc8"/><path d="M229.97,406.3l-14.27,1.41s2.34,24.6,1.57,28.5c-.16,.81,5.08,1.01,14.55,.5,1.63-4.75-.67-22.35-1.85-30.41Z" fill="#eae1dc"/></g><g id="Skin"><g id="Skin-2"><ellipse cx="142.75" cy="86.75" rx="5.56" ry="14.72" transform="translate(-16.24 35.52) rotate(-13.43)" fill="#ffc8b3"/><path d="M158.89,125.76v13.26s6.88,6.42,13.67,7.43,35.95-.55,35.77-7.06c-.18-6.51-.31-15.53-.31-15.53l-49.12,1.91Z" fill="#ffc8b3"/><path d="M208.1,128.75c-.03-1.46-.05-2.7-.06-3.57-.53-.48-1.3-.89-2.27-1.24l-46.87,1.82v4.82s12.53,9.63,16.2,9.75c3.67,.11,24.96-.57,33-11.58Z" fill="#fcb7a2"/><path d="M143.35,47.6s2.61,63.66,5.36,67.51c2.75,3.85,18.73,24.39,29.5,24.39s32.5-10.45,35.8-23.47,16.4-68.77,14.87-69.5c-50.96-24.47-51.84-3.43-51.84-3.43,0,0-9.69-33.75-33.7,4.5Z" fill="#ffdccc"/><path d="M173.78,35.98c-2.21-1.38-4.28-9.27-9.1-7.51-5.4,1.97-17.67,4.83-21.34,19.14,0,0,.42,59.99,4.91,67.69,3.13,5.38,7.82,10.54,16.7,17.58-19.43-99.93,3.23-84.28,8.83-96.89Z" fill="#ffd8cc"/><path d="M97.46,300.65s-18.87,5.44-17.22,14.79,17.61,19.54,17.61,19.54l-.39-34.33Z" fill="#ffc8b3"/><ellipse cx="220.81" cy="86.75" rx="14.72" ry="5.56" transform="translate(85.16 281.39) rotate(-76.57)" fill="#ffc8b3"/><path d="M224.72,373.83s9.9,4.15,19.52,34.73c-6.6,1.51-30.62-.76-30.62-.76l-30.45-16.11,41.55-17.87Z" fill="#ffc8b3"/><path d="M163.34,381.21c-4.68,1.65-24.76,26.97-24.76,36.6s71.54,19.26,78.7,18.71,1.87-26.62-.14-27.68-49.12-29.28-53.79-27.63Z" fill="#ffd0c2"/><path d="M217.01,41.84c-.22,19.66-4.62,73.93-24.06,94.37,9.56-5.01,18.98-11.91,21.07-20.18,3.3-13.02,14.32-58.43,13.96-60.08-.14-.65,2.72-14.1-10.97-14.1Z" fill="#ffd0c2"/></g></g><g id="Hair_Pieces"><path d="M175.69,39.54s-16.8-3.22-32.94,22.11c-5.45,8.56-4.43-14.54-4.43-15.81s15.43-37.05,28.07-23.28c12.63,13.76,9.31,16.97,9.31,16.97Z" fill="#ffbc00"/><path d="M126.18,70.07s1.94,7,0,9.47-19.76,14.27-11.98,27.76c7.77,13.49,11.01,12.3,11.01,12.3,0,0-15.06-9.57-11.33-18.52,3.72-8.95,14.58-19.59,15.55-22.12s-3.24-8.88-3.24-8.88Z" fill="#fa0"/><path d="M177.05,43.1s12.27,17.49,39.55,11.97c11.05-1.85,2.91,10.16-1.57,20.21-4.48,10.05-2.95,15.42,8.97,14.57,11.92-.85,26.28,4.33,4.65,14.91-21.64,10.58-39.81,9.92-22.69,17.87,17.12,7.95,34.61,11.2,33.21-.36-2.25,2.47-14.56,6.78-27.7-1.78-13.15-8.56,18.15-3.76,26.5-12.43,8.35-8.67,15.56-5.85,1.86-24.23s-7.88-37.31-7.88-37.31c0,0-38.67-34.15-48.99-20.91-10.32,13.24-5.91,17.48-5.91,17.48Z" fill="#ffc943"/><path d="M181.43,17.53s7.66-13.93,15.9-12.13c13.62,2.97,32.87,13.86,30.79,20.65-2.07,6.79-10.98,16.9,.8,17.89,11.78,1,21.75-.19,20.5,5.09s-21.19,12.62-21.19,12.62c0,0,14.55-7.76,14.69-10.77,.14-3.01-8.58,2.34-15.24-3.06-6.66-5.4-13.27-8.49-8.24-16.17s-4.63-16.23-17.96-17.56c-13.6-1.36-20.05,3.43-20.05,3.43Z" fill="#fa0"/><path d="M115.06,102.82c1.38,1.47,3.43,2.62,6.49,2.79,8.96,.51,8.26-7.61,6.03-10.67l-.03-.04c-.14-.15-.25-.3-.37-.44-.21-.27-.39-.52-.53-.76-.52-.88-1.57-1.32-1.91-1.66-.09-.11-.11-.21-.06-.3,.24-.35,1.7-.72,5.88-1.52,1.37-.26,3.03-.57,5.03-.95,9.14-1.71,7.65-6.38,4.11-10.51-2.53-2.93-6.09-5.59-7.61-6.71-3.69-2.71,3.86-3.14,13.29-8.44,9.43-5.3,.57-15.91,.05-17.87-.53-1.95-1.13-3.11,1-6.41,1.5-2.33,14.17-9.85,22.5-6.12s7.49,7.4,7.49,7.4c0,0,1.62-15.45-17.64-11.86-11.24,2.09-20.02,9.74-19.83,13.21,0,0,0,.03,.01,.08,.01,.08,.02,.2,.05,.37,.68,3.64,7.05,10.77,4.86,14.55-2.29,3.94-10.53,6.86-15.63,7.08-5.09,.21-9.83,4.77-3.16,9.09,.71,.46,1.49,.95,2.33,1.47,.03,.02,.06,.04,.08,.04,.01,0,.01,0,.02,.01h.01c3.62,2.21,7.97,4.77,9.85,7.03,1.73,2.06,1.41,3.88-3.34,4.98-.25,.06-.52,.12-.77,.17-3.72,.83-7.04,1.32-9.71,1.71-5.1,.77-7.79,1.22-6.21,3.09,.59,.69,1.48,1.49,2.46,2.33h.02c3.14,2.68,7.17,5.71,4.9,6.87-2.99,1.52-11.07-3.24-12.47-5.63,0,0-.08,4.52,2.81,7.61Z" fill="#ffc943"/><path d="M180.48,29.56s-3.48-21.1-15.95-18.36c-12.47,2.73-48.29,35.47-44.11,43.11,4.18,7.64,3.29,11.9-.34,10.22,8.25,1.61,6.86-7.47,4.28-12.05-2.59-4.58,39.1-41.54,56.12-22.92Z" fill="#ffc943"/></g><g id="Sweater"><path d="M158.89,135.99s2.6,12.01,22.86,9.91c20.36-2.12,21.43-3.02,24.7-4.75,2.2-3.1,1.81-5.16,1.81-5.16,0,0,3.92,1.73,4.84,2.41s3.12,6.27,3.67,8.06c.55,1.79,6.42-.96,7.89,.88s5.69,6.6,8.44,6.97,22.38-2.02,29.72,1.1c7.34,3.12,11.92,3.12,12.47,7.34,.55,4.22,15.59,8.07,13.94,22.56,5.32,14.49,7.15,38.71,9.91,41.46,2.75,2.75,4.4,35.77,3.49,38.16s2.57,24.03,2.94,26.6c.37,2.57,7.89,6.05,6.05,10.46-1.83,4.4-.18,6.6-7.7,12.11-7.52,5.5-23.48,19.81-23.48,19.81l-182.57-33.07s-17.3,4.27-16.81,16.92c-10.68-11-19.1-15.69-29.56-16.92-1.65-10.95,.92-31.32,2.57-33.33,1.65-2.02,3.12-3.12,4.95-7.34,1.83-4.22,6.97-40.72,6.05-46.41-.92-5.69,.55-7.89,3.67-14.13s4.04-15.41,10.27-24.03,17.38-23.01,35.4-24.03c16.14-.92,29.72-.92,33.94-3.49,4.22-2.57,7.89-10.94,10.55-12.08Z" fill="#c41c70"/><path d="M108.43,207.7l-1.73,7.13s-1.51,7.08-2.62,8.46c-1.09,1.38-6.6,.68-8.11-.68-1.51-1.38,.41-10.73,.67-14.32,.28-3.58,2.38-6.8,2.38-6.8-6.74-10.01-15.5-21.8-15.5-21.8,2.76,.61,24.29,25.45,24.91,28.02Z" fill="#941554"/><path d="M109.45,167.7s-2.2,12.29-2.94,17.98-4.04,6.24,0,10.64c4.04,4.4,5.5,3.85,4.22,7.52-1.28,3.67-6.5,13.35-6.19,18.6,.32,5.25,2.52,19.01,2.52,19.01,0,0-1.65-9.69-.37-17.41,1.28-7.72,5.14-15.06,5.5-20.56s-1.87-5.32-3.78-8.99c-1.91-3.67,1.02-26.78,1.02-26.78Z" fill="#941554"/><path d="M211.45,204.58c1.1-.37,30.45-7.52,38.71-6.79s7.7,.18,7.52,6.79c-.18,6.6,.71,19.81,.08,22.01s-1.55-18.53-12.74-20.91c-11.19-2.38-33.57-1.1-33.57-1.1Z" fill="#941554"/><path d="M53.35,300.94s5.66-21.33,19.97-17.85,23.33,12.29,23.33,12.29c0,0-18.2-11.01-23.88-10.46-5.69,.55-8.75,1.39-19.42,16.01Z" fill="#941554"/><path d="M95.97,283.64c.77,.84-6.15-10.27-14.77-9.17,0,0,8.08,1.83,14.77,9.17Z" fill="#941554"/><path d="M88.62,281.62s-24.79-14.53-35.27,1.08c0,0,8.93-11.17,35.27-1.08Z" fill="#941554"/><path d="M52.44,296.38s2.31-14.28,14.13-17.24c0,0-6.97,1.47-14.13,17.24Z" fill="#941554"/><path d="M96.65,299.54s-16.5,2.23-18.36,15.64c0,0,3.42,3.2,2.75,2.57s15.61-16.81,15.61-16.81v-1.39Z" fill="#941554"/><path d="M96.65,234.29s-11.41-19.12-24.76-19.67c0,0,3.42-2.34,24.76,19.67Z" fill="#941554"/><path d="M281.98,289.6c0,.28,22.98-1.79,27.38,13.48v3.85s-9.49-16.51-27.38-13.76v-3.58Z" fill="#941554"/><path d="M281.98,297.44v2.89s16.45-.24,21.68,13.94l2.65-2.1s-7.14-15.83-24.34-14.73Z" fill="#941554"/><path d="M308.21,309.71c.11,.14-5.09-11.65-16.23-13.99,0,0,9.91,5.82,16.23,13.99Z" fill="#941554"/><path d="M257.99,219.16s9.55-.69,11.89,0-11.89,3.85-11.89,3.85v-3.85Z" fill="#941554"/><path d="M123.02,204.58s73.67-5.54,92.69-9.36c19.01-3.82,31.52-5.87,38.12-8.81,0,0,7.96,2.02,4.16,4.4-3.79,2.38-102.51,27.81-134.97,21.43-6.59-2.72,0-7.67,0-7.67Z" fill="#df207f"/><path d="M234.72,206.59s-36.48,2.2-53.17,0c-16.69-2.2-72.09,10.04-41.09,7.95,31-2.08,86.34-4.47,94.26-7.95Z" fill="#df207f"/><path d="M111.25,208.36c3.29-5.38,9.03,11.38,15.82,10.49,2.94,8.84-2.94,18.74-2.94,18.74l-17.73-2.01s-1.62-16.65,4.84-27.22Z" fill="#df207f"/><path d="M95.15,212.24c0-.88-13.39-29.86-18.53-30.23,0,0,16.33,25.06,16.33,30.23s2.2,0,2.2,0Z" fill="#df207f"/><path d="M105.86,153.15s3.76-.98,4.84-1.18c.9-.16,3.06,8.51,1.18,11.82-1.87,3.3-2.47,4.22-2.47,4.22,0,0-.92-14.86-3.56-14.86Z" fill="#df207f"/><path d="M219.74,162.45c-19.8,4.68-33.02,.83-32.47-1.38,.55-2.2,33.01-2.2,32.47-4.34-.55-2.14-20.64,0-20.64,0l2.54-.86c-16.61,1.08-39.56,1.67-47.12-1.39-11.56-4.68-4.4-7.51-4.4-7.51,0,0,0,9.98,28.34,8.88,28.34-1.09,37.42-3.58,39.07-6.88h4.57l16.62,6.82s.82,1.99-18.98,6.67Z" fill="#941554"/><path d="M195.95,144.97s-6.15,9.78-2.28,9.43,25.85-.74,23.1-5.96c-2.75-5.23-8.44-8.94-8.44-8.94,0,0-.78,3.85-12.38,5.47Z" fill="#941554"/><path d="M144.95,151.17s-12.19,4.7-1.69,7.18,9.67,2.48,17.38,4.13c0,0-23.95-4.47-32.75-7.19s17.06-4.12,17.06-4.12Z" fill="#941554"/><path d="M148.14,154.92l.42-.61s12.67,2.82,29.98,3.66,.16,2.46-17.12,.3-31.46-3.38-12.86-3.96" fill="#df207f"/></g><g id="Computer"><rect x="96.65" y="230.79" width="185.33" height="112.92" rx="5.76" ry="5.76" fill="url(#linear-gradient)"/><path d="M194.37,284.22v-.02c-.01-.33-.07-.65-.16-.95h0c-.47-1.52-1.89-2.62-3.56-2.62-1.88,0-3.42,1.39-3.69,3.19-.26-1.8-1.81-3.19-3.69-3.19-1.67,0-3.09,1.1-3.56,2.61h0c-.09,.3-.15,.62-.16,.95v.02s0,.1,0,.15,0,.1,0,.15c.06,4.51,6.54,9.67,7.37,10.31v.07l.04-.03,.04,.03v-.07c.83-.64,7.31-5.8,7.37-10.31,0-.05,0-.1,0-.15s0-.1,0-.15Z" fill="url(#linear-gradient-2)"/></g><g id="Jeans"><polygon points="108.49 342.1 267.57 343.43 238.22 364.9 224.35 374.07 185.38 390.79 167.16 381.96 108.49 342.1" fill="#14528f"/><path d="M51.49,300.83c-7.19-.13-25.41-4.07-35.86,2.53S1.13,320.79,.41,328.21c-.49,6.51-1.11,23.57,1.92,27.42,3.03,3.85,26.69,22.66,38.16,27.61,11.47,4.95,78.79,30.18,81.63,31.37,1.74-6.08,25.31-41.64,29.26-43.75-5.5-4.59-48.8-32.8-53.52-36.19-4.72-3.39-11.83-8.12-16.81-16.92-6.05-6.94-16.99-16.7-29.56-16.92Z" fill="#207fdf"/><path d="M47.96,377.89c-12.87-5.23-39.43-25.08-42.83-29.15-3.4-4.07-2.7-22.08-2.15-28.96,.07-.67,.18-1.36,.3-2.08-1.68,3.72-2.57,7.41-2.87,10.51-.49,6.51-1.11,23.57,1.92,27.42,3.03,3.85,26.69,22.66,38.16,27.61,11.47,4.95,78.79,30.18,81.63,31.37,.41-1.43,2.02-4.48,4.3-8.33-22.99-8.19-68.71-24.43-78.45-28.39Z" fill="#1966b3"/><path d="M151.37,370.87s1.31-1.11,5.14-1.47,10.39,6.82,10.59,9.22c.12,1.38,.06,3.35,.06,3.35,0,0-3.23-1.56-6.15,.83-3.83,3.74-7.5,9.81-11.17,15.3s-10.8,25.37-14.1,26.47-14.45-6.01-14.03-7.98c-2.89-3.85,21.51-41.37,29.67-45.72Z" fill="#a5cbf2"/><path d="M280.42,333.9s22.61-23.53,39.67-27.65c17.06-4.13,44.3-9.22,61.91,6.6,14.03,18.02,5.09,45.13,2.34,47.88-2.75,2.75-58.88,42.51-63.29,41.14-4.4-1.38-25.73-7.98-36.32-5.5-10.59,2.48-23.39,9.22-26,10.32-.96-4.68-15.13-39.76-20.77-41.96,8.94-6.33,36.5-26.97,42.47-30.82Z" fill="#207fdf"/><path d="M299.04,385.25c-12.41,2.82-27.4,10.5-30.46,11.76-.87-4.11-10.95-28.84-18.55-41.07-4.98,3.66-9.38,6.87-12.07,8.78,5.64,2.2,19.81,37.28,20.77,41.96,2.61-1.1,15.41-7.84,26-10.32,10.59-2.48,31.92,4.13,36.32,5.5,1.57,.49,9.68-4.23,19.6-10.63-6.72-2.02-29.83-8.67-41.61-5.99Z" fill="#1966b3"/><path d="M238.51,364.25s-2.79-3.57-3.99-3.52c-1.35,.05-14.13,8.45-12.24,10.73,1.88,2.29,9.05,6.93,13.9,17.6,4.85,10.67,8.07,19.5,8.07,19.5,2.52,.19,13.44-1.04,15.25-1.88-.91-2.97-6.64-17.02-9.91-23.73-3.27-6.72-8.3-15.73-11.07-18.7Z" fill="#a5cbf2"/><path d="M50.18,387.16s20.75,21.07,24.6,21.88c3.16-3.04,6.76-6.61,15.76-6.41-10.4-4.53-40.36-15.47-40.36-15.47Z" fill="#14528f"/></g></g></g></svg>