<?xml version="1.0" encoding="UTF-8"?><svg id="Layer_2" xmlns="http://www.w3.org/2000/svg" viewBox="0 0 37.9 37.98"><g id="Icons"><g id="Pencil"><path d="M9.98,36.39L1.51,27.92,21.85,7.58c.49-.49,1.28-.49,1.77,0l6.7,6.7c.49,.49,.49,1.28,0,1.77L9.98,36.39Z" fill="#e5da1a"/><path d="M27.94,1.84h6.97c1.38,0,2.5,1.12,2.5,2.5v5.52c0,.69-.56,1.25-1.25,1.25h-9.47c-.69,0-1.25-.56-1.25-1.25V4.34c0-1.38,1.12-2.5,2.5-2.5Z" transform="translate(13.78 -20.32) rotate(45)" fill="#df207f"/><path d="M5.77,37.18l4.21-.79L30.32,16.05c.49-.49,.49-1.28,0-1.77l-2.58-2.58L6.51,32.93l-.75,4.25Z" fill="#e2bc1b"/><path d="M31.5,13.1c.49,.49,1.28,.49,1.77,0l3.9-3.9c.98-.98,.98-2.56,0-3.54l-1.69-1.69-6.55,6.55,2.58,2.58Z" fill="#d1187d"/><path d="M1.62,37.96l8.36-1.57L1.51,27.92,.02,36.38c-.17,.94,.66,1.75,1.6,1.58Z" fill="#fcd4ae"/><path d="M.45,33.92L.02,36.38c-.17,.94,.66,1.75,1.6,1.58l2.42-.45-3.58-3.58Z" fill="#41353a"/></g></g></svg>