<?xml version="1.0" encoding="UTF-8"?><svg id="Layer_2" xmlns="http://www.w3.org/2000/svg" xmlns:xlink="http://www.w3.org/1999/xlink" viewBox="0 0 258.09 531.78"><defs><linearGradient id="linear-gradient" x1="56.33" y1="271.09" x2="196.98" y2="271.09" gradientTransform="translate(13.02 -5.71) rotate(2.72)" gradientUnits="userSpaceOnUse"><stop offset="0" stop-color="#b3b3b3"/><stop offset="1" stop-color="#e5e5e5"/></linearGradient><linearGradient id="linear-gradient-2" x1="112.4" y1="288.09" x2="112.4" y2="273.83" gradientTransform="translate(403.17 141.02) rotate(87.28)" gradientUnits="userSpaceOnUse"><stop offset="0" stop-color="#e5e5e5"/><stop offset="1" stop-color="#f2f2f2"/></linearGradient></defs><g id="Standing"><g id="Person"><g id="Jeans"><path d="M55.97,377.59l-10.3,16.66s-7.34,44.34-11.92,49.84c-4.59,5.5-4.59,19.26-4.13,31.64,.46,12.38,3.21,46.78,7.34,53.2,4.13,6.42,81.17,0,81.17,0l3.67-23.85,4.85,26.7h85.04s0-86.78-2.29-99.16c-2.29-12.38,2.29-47.12,2.29-47.12l-155.72-7.92Z" fill="#14528f"/><path d="M147.26,412.38s-2.06,28.27,19.72,31.02c13.68,1.73,31.8,1.29,43.38,.72-.26-5.37-.58-9.45-.96-11.49-1.09-5.87-.63-16.77,.16-26.61l-62.3,6.37Z" fill="#125f9e"/><path d="M110.23,391.67s-.34,14.8,0,18.47,4.47,4.59,4.01,9.86-2.06,69.94-2.06,69.94c0,0,12.95-6.88,17.02-12.84,4.07-5.96,2.01-51.36,3.15-56.41s6.07-3.86,6.07-3.86l-1.04-21.93s-22.24-2.52-27.15-3.24Z" fill="#125f9e"/><path d="M111.76,408.62l-1.55,1.19c0,.12,.02,.24,.03,.34,.34,3.67,4.47,4.59,4.01,9.86-.46,5.27-2.06,69.94-2.06,69.94,0,0,.65-.34,1.69-.94,1.27-8.42,2.12-71.09,1.55-73.66-.61-2.75-3.67-6.73-3.67-6.73Z" fill="#0b416d"/><path d="M122.26,502.78s-27.06-30.04-65.35-22.7c0,0,37.15,1.15,65.35,22.7Z" fill="#0b416d"/><path d="M120.56,498.2s46.26-25.01,90.82-13.08c0,0-58.36-2.06-90.82,13.08Z" fill="#0b416d"/><path d="M211.69,477.33s-68.95-9.4-85.04,6.19c0,0,33.67-10.78,85.04-6.19Z" fill="#0b416d"/><path d="M110.08,483.52c4.91,2.73-28.63-21.32-56.15-15.13,0,0,19.89-5.04,56.15,15.13Z" fill="#0b416d"/><path d="M45.68,394.25s-3.58,21.64-7.31,36.56c4.8,1.12,11.49,1.99,20.6,1.81,23.38-.46,26.15-22.47,26.15-22.47l-38.12-18.04-1.32,2.13Z" fill="#125f9e"/><path d="M55.97,377.59l-9.51,15.39c10.48,7.62,34.35,21.46,71.52,23.44,40.02,2.13,76.79-4.36,91.34-7.39,.85-12.09,2.36-23.52,2.36-23.52l-155.72-7.92Z" fill="#0b416d"/><rect x="137.97" y="394.72" width="7.57" height="25.05" transform="translate(302.7 807.29) rotate(177.28)" fill="#125f9e"/><circle cx="119.63" cy="404.76" r="5.39" fill="#ba941c"/><path d="M85.12,410.15l-.16-.08c-1.51,3.41-13.75,28.34-45.98,18.26-.2,.84-.4,1.67-.6,2.48,4.8,1.12,11.49,1.99,20.6,1.81,23.38-.46,26.15-22.47,26.15-22.47Z" fill="#0b416d"/><rect x="83.91" y="388.04" width="7.57" height="26.54" transform="translate(118.16 -8.34) rotate(16.58)" fill="#125f9e"/><path d="M162.2,439.34c-12-3.17-12.92-23.27-12.99-27.16l-.91,.09-1.08,.89c-.14,4.56,.12,27.76,19.75,30.24,13.68,1.73,31.8,1.29,43.38,.72-.05-1.07-.11-2.07-.16-3.04-12.3,.41-38.03,.9-47.99-1.73Z" fill="#0b416d"/></g><g id="Shirt"><path d="M256,311.83c-12.94-13.45-44.31,1.55-44.31,1.55l-5.44,.2c1.47-3.22,4.19-9.66,5.44-15.67,0-.01,0-.03,.01-.04h0c.76-3.69,.96-7.21-.01-9.71-3.21-8.26-11.01-11.96-11.01-11.96h6.88s-5.96-9.8-23.39-5.11c-17.42,8.35-16.96,12.94-35.77,12.94-18.44,2.48-73.57,10.21-97.22,8.64,0,0-3.33-.31-6.42-.84-19.72-17.58-40.27,6.42-40.27,6.42-.12-3.75-3.99-4.01-3.71-9.33,.17-3.23,2.1-4.39,2.33-7.87,.2-3.04-3.35-8.38-3.1-11.55,2.23-28.16,8.41-60.43,14.94-77.8,4.27-11.35,59.94-23.26,59.94-23.26l81.22-10.29s56.04,18.11,73.92,31.87c14.85,11.43,24.55,60.22,26.91,93.32,.01,.08-.47,5.42-.46,5.5,.02,.19,1.61,3.9,1.61,7.2s-.47,9.1-.46,9.25c.13,2.52,.75,3.32-1.63,6.54Z" fill="#15cb8b"/><path d="M206.06,390.98c-89.43,17.43-150.22-11.01-150.22-11.01l-13.5-13.29,8.71-22.48v-2.8c2.52-.3,5.12-.64,7.79-1.02,.88,3.6,32.01,3.12,43.47-2.39,11.47-5.5,47.93,5.69,61.23,10.27,8.41,2.9,24.46,6.12,48.81,8l3.34,26.01s1.83,3.21-9.63,8.71Z" fill="#15cb8b"/><g><path d="M75.4,366.12c-19.92-11.66-22.13-30.15-14.74-20.71-.21-.82-.97-3.92-1.82-7.42-2.67,.38-5.27,.72-7.79,1.02v2.8l-1.76,4.53c17.23,17.91,26.11,19.77,26.11,19.77Z" fill="#11a672"/><path d="M92.23,365.86c-6.94-3.07-15.14-10.42-22.32-17.9-4.38-.5-7.78-1.37-8.87-2.09" fill="#11a672"/></g><polygon points="49.81 213.87 42.47 296.16 49.81 295.92 49.81 213.87" fill="#11a672"/><polygon points="214.44 315.7 195.56 213.87 210.36 318.89 214.44 315.7" fill="#11a672"/><path d="M212.35,356.26c-24.35-1.88-40.4-5.1-48.81-8-13.3-4.58-49.76-15.77-61.23-10.27-11.46,5.51-42.59,5.99-43.47,2.39-.78,.11-1.54,.21-2.31,.32-.25,2.11,.61,4.26,4.52,5.18,8.87,2.09-20.52,40.88,47.05,24.83,12.39-2.94,81.97-9.12,105.82-2.21l-1.57-12.23Z" fill="#11a672"/><path d="M258.09,296.04s-41.79-12.56-45.81,.12c0,0,4.42-9.51,45.81-.12Z" fill="#11a672"/><path d="M2.39,284.03s32.93-14.37,38.13-2.29c0,0-13.74-4.9-38.13,2.29Z" fill="#11a672"/><path d="M14.95,191.7c-3.52,9.35-6.93,23.04-9.69,38.08,1.96-9.43,7.04-27.56,18.44-38.08,15.9-14.68,51.18-23.26,51.18-23.26,0,0-55.67,11.91-59.94,23.26Z" fill="#22d38f"/><path d="M237.8,216.79c1.97,9.03,7.19,16.97,13.09,23.45-4.73-22.59-11.84-43.29-20.85-50.22-17.88-13.76-73.92-31.87-73.92-31.87,0,0,76.18,33.37,81.69,58.64Z" fill="#22d38f"/><path d="M.99,273.89s20.12-18.14,29.9-10.04,13.23,13.78,13.23,13.78c0,0-17.54-20.46-43.13-3.74Z" fill="#22d38f"/><path d="M2.82,277.67c-2.87,1.78,8.82-14.53,29.18-8.89,5.92,1.64,9.59,9.9,9.59,9.9,0,0-6.56-20.98-38.77-1.01Z" fill="#11a672"/><path d="M257.45,291.84s-31.28-26.06-45.76-1.35c0,0,16.81-12.4,45.76,1.35Z" fill="#22d38f"/><path d="M256.48,288.84s-31.07-17.66-38.52-9.52-6.27,8.83-6.27,8.83c0,0,16.36-14.22,44.79,.68Z" fill="#11a672"/></g><g id="Hair_Foundation"><path d="M57.93,120.2s-17.46,11.92-7.73,13.07c9.73,1.15,16.72-10.78,16.72-10.78,0,0-29.69,18.11-8.98-2.29Z" fill="#fa0"/><path d="M201.17,124.85s6.81,19.26-7.7,19.03c-14.51-.23-13.12-9.24-13.12-9.24,0,0,19.29,17.9,20.82-9.79Z" fill="#fa0"/><path d="M201.48,90.37c3,4.15,1.95,9.85-1.41,12.71-.6,.51-.98,1.05-1.18,1.6v.04c-.22,.56-.22,1.15-.08,1.72v.02c.12,.5,.33,.99,.62,1.49h0c.88,1.54,2.46,3.03,3.95,4.33,1.16,1.01,.97,2.33,.4,3.82h0c-.97,2.5-2.96,5.41-1.08,7.86,3,3.89-4.75,3.89-7.4,5.18-2.64,1.3-4.58-.38-2.47,.91,2.12,1.3,1.06,4.16,0,8.04-1.05,3.89-3.52,.52-11.8,9.87-8.28,9.34-16.21,.38-21.31-4.81-5.12-5.18,.17-16.21,.17-16.21,0,0,3.85-9.87,5.95-12.77-2.24,3.67,41.82,3.97,15.98,17.71-2.66,1.41-4.63-.41-3.25-2.18,2.9-3.7,2.82-9.11,2.82-9.11-1.41,2.86-9.52,8.56-12.52,6.75-2.27-1.38,1.78-5.01,4.92-8.21l.02-.02c.98-1,1.88-1.96,2.47-2.79,1.58-2.25-1.12-2.78-6.24-3.71-2.67-.48-6.01-1.06-9.74-2.05-.25-.06-.52-.14-.77-.2-4.77-1.32-5.09-3.5-3.35-5.96,1.89-2.72,6.26-5.78,9.89-8.43h.01s.01-.02,.02-.02c.02,0,.05-.03,.08-.05,.84-.62,1.63-1.2,2.34-1.76,6.7-5.18,1.94-10.64-3.17-10.89-5.12-.26-13.39-3.76-15.69-8.48-2.2-4.53,4.2-13.08,4.88-17.44,.02-.15,.05-.31,.05-.44,.01-.07,.01-.1,.01-.1,.18-4.15-8.83-12.47-20.13-14.92s2.14,6.27,2.14,6.27c-.92,.2-13.16,10.41-14.08,10.47-5.53,.31-9.48-.55-12.54-3.07-.75-.6-1.43-1.31-2.09-2.11-3.34-4.15-12.15,2.6-6.87,11.16,.21,.34,.39,.67,.55,.99,.01,0,.01,.02,.01,.02,.7,1.32,1.09,2.56,1.26,3.69v.02c.8,5.68-4.15,9.21-6.4,12.01-.17,.22-.35,.44-.51,.68-.32,.45-.61,.9-.86,1.39,0,0,.01,0,0,.02-1.36,2.55-1.97,5.57-1.34,7.79h0c.2,.69,.51,1.3,.95,1.79,.8,.9,1.3,3.2,1.51,6.02v.02c.18,2.56,.1,5.54-.27,8.31h0c-.4,3.04-1.16,5.8-2.31,7.45-.93,1.33-1.12,2.73-.92,4.06v.04c.21,1.25,.75,2.44,1.37,3.44h0c1.03,1.66,2.24,2.83,2.36,2.95,.01,0,.01,0,.01,0l-7.76,5.84s-.35,.36-.9,.96c-1.37,1.47-4.01,4.34-5.72,6.33h0c-.15,.18-.3,.34-.43,.49-.01,0-.01,.02-.02,.03-2.33,2.72-11.27,5.03-16.28,5.94,2.02,1.55,15.24,3.11,15.24,3.11,0,0-12.69,.25-20.44-2.85-7.76-3.11,4.05-11.42,8.28-14.14,4.23-2.72,2.29-6.09-5.29-3.63-7.38,2.4-11.58-3.07-11.79-3.36,3.35,2.05,7.39,0,7.39,0,0,0,7.02-7.35,2.71-6.06-.02,0-.06,.02-.09,.03-.25,.08-.53,.19-.85,.32-5.57,2.34-10.4,1.31-11.3,1.08,2.59,.56,10.25-2.77,9.94-4.06-.02-.1-.1-.19-.22-.26-1.76-1.04,.52-11.41,.52-11.41,0,0-.7-1.24-1.52-2.93-.06-.09-.1-.19-.14-.28-1.26-2.6-2.7-6.13-2.39-7.95,.53-3.11,6.87-5.06,5.99-6.61-.89-1.56-.36-3.11,2.99-5.58,3.35-2.46,7.05-4.93,4.76-10.63-2.28-5.71,8.12-27.61,8.12-27.61,18.52-27.06,49.84-27.93,65.12-25.07,16.98,3.17,40.64,16.29,44.55,18.8,11.6,7.44-6.96,19.01-.27,25.37,5.05,4.8,5.78,4.71,10.26,5.61,1.46,.3,2.82,.71,4.03,1.48,4.93,3.11,6.17,9.85,4.23,14.65-1.95,4.8-6.7,3.37-3.71,7.53Z" fill="#fa0"/><path d="M142.55,94.76s-8.33-13.93-17.3-12.13c-14.82,2.97-35.76,13.86-33.5,20.65s11.95,16.9-.87,17.89c-12.82,1-23.67-.19-22.31,5.09s23.06,12.62,23.06,12.62c0,0-15.83-7.76-15.98-10.77-.15-3.01,9.33,2.34,16.58-3.06,7.25-5.4,14.44-8.49,8.97-16.17-5.47-7.67,5.04-16.23,19.54-17.56,14.79-1.36,21.82,3.43,21.82,3.43Z" fill="#fa0"/></g><g id="Face"><path d="M195.56,172.56l-70.77,22.27s-64.09-22.62-61.69-23.61c4.82-1.38,40.48-9.56,40.48-9.56,.68-13.97-1.8-33.55-1.8-33.55,0,0,48.92-24.16,50.45,4.89,.54,10.37,2.07,24.37,4.2,25.15,3.44,0,39.13,14.41,39.13,14.41Z" fill="#ffd0c2"/><path d="M154.35,152.79c-1.04-5.2-1.78-13.22-2.12-19.79-.43-8.25-4.69-12.2-10.56-13.64l-24.39,2.66c-7.47,2.34-13.59,5.18-15.13,5.91l-.29,.94c.32,2.7,1.4,12.29,1.73,22.08,8.65,5.49,25.58,11.79,50.75,1.84Z" fill="#ffc8b3"/><path d="M152.23,133c-.04-.82-.13-1.59-.25-2.32l-49.53,3.55c.08,.79,.16,1.64,.24,2.53,3.55,3.78,10.21,10.85,11.53,12.16,1.82,1.81,16.87,3.33,22.57,1.81,4.1-1.1,11.61-11.08,15.51-16.61-.02-.38-.04-.75-.06-1.12Z" fill="#fcb7a2"/><path d="M123.49,29.97l-40.97,33.63,6.11,55.34s23.24,26.9,27.52,28.43,18.65,3.67,22.01,0c3.36-3.67,31.8-32.1,31.8-32.1,0,0,6.73-61.45,5.5-62.98s-51.97-22.32-51.97-22.32Z" fill="#ffdccc"/><path d="M138.16,147.37c3.36-3.67,31.8-32.1,31.8-32.1,0,0,6.73-61.45,5.5-62.98-.22-.27-1.97-1.14-4.7-2.38-7.73,33.34-19.66,76.12-33.97,98.41,.56-.26,1.03-.58,1.38-.95Z" fill="#ffd0c2"/><path d="M114.22,146.1c-10.71-26.14-10.93-69.59-9.3-100.89l-22.4,18.39,6.11,55.34s18.61,21.55,25.59,27.16Z" fill="#ffd8cc"/></g><path id="Hair_Base" d="M128.38,8.57s-15.67-5.5-24.8,4.59c-9.13,10.09-22.59,13.15-26.87,23.24s3.36,14.98,0,20.18-10.39,3.67-17.12,21.71,3.67,28.43,9.17,36.08c5.5,7.64,3.97,28.74-5.5,18.65-9.48-10.09,.61-11.92,.61-11.92,0,0-14.98,6.28-3.67,14.6,11.31,8.33,16.51,.38,21.4-1.46,4.89-1.83,2.51,4.99,11.92,9.59,8.96,4.39,10,5.11,10,5.11l-1.1-14.97s-7.56-7-11.11-14.79c-4.8-10.53,11.39-6.04,8.94-17.66-2.45-11.62-7.59-5.81-8.07-20.79-.49-14.98,16.02-38.83,29.48-43.41s29.35,37.91,42.8,33.63c7.03,.31,2.75,10.7,0,16.2s-4.42,13.06-2.75,22.62c1.57,9.01,2.64,19.87-3.78,18.95-6.42-.92-3.82-2.18-1.79-3.86,0,0-10.94,3.87-3.91,8.15s.18,2.83,.18,2.83c0,0,.42,8.98,1.19,10.7,.77,1.71,2.76,4.2,8.11-.39,5.5-6.42,6.73-5.58,13.15-2.33,6.42,3.25,11.92,5.92,16.2,0s9.78-15.71,0-20.29c-9.78-4.59,7.87-16.2,5.46-28.13-2.41-11.92-12.49-28.74-16.77-59.31-4.28-30.57-46.78-32.71-51.36-27.52Z" fill="#ffbc00"/><g id="Computer"><rect x="60.38" y="176.68" width="132.54" height="188.83" rx="7.7" ry="7.7" transform="translate(-12.73 6.32) rotate(-2.72)" fill="url(#linear-gradient)"/><path d="M131.76,273.87h.01c.33-.03,.65-.1,.94-.21h0c1.49-.55,2.52-2.01,2.44-3.68-.09-1.87-1.55-3.35-3.36-3.53,1.79-.35,3.1-1.96,3.01-3.83-.08-1.67-1.24-3.03-2.78-3.43h0c-.31-.08-.63-.12-.96-.12h-.02s-.1,0-.15,0-.1,.01-.15,.01c-4.5,.27-9.34,6.99-9.95,7.85h-.07l.04,.05-.03,.05h.07c.68,.8,6.14,7.02,10.65,6.86,.05,0,.1,0,.15,0s.1-.01,.15-.01Z" fill="url(#linear-gradient-2)"/></g><path id="Arm" d="M246.95,361.99c-5.71,0-18.19-.68-32.35-1.77-24.35-1.88-53.66-4.96-62.07-7.86-13.3-4.58-47.69-12.38-59.16-6.88-11.46,5.51-32.1,1.84-32.56,0-.18-.71-.96-3.89-1.84-7.49,30.5-4.38,69.09-14.02,89.68-22.29l32.96-1.21,24.64-.91,5.44-.2s31.37-15,44.31-1.55c.18,17.75-.93,44.72-9.05,50.16Z" fill="#ffc8b3"/><g id="Arm-2"><g><polygon points="207.33 275.88 206.46 280.44 198.89 276.77 198.28 273.63 207.33 275.88" fill="#ffc8b3"/><path id="Arm_Front" d="M206.25,313.58l-21.77,.85s-13.18-5.19-26.48-2.66c-16.65,9.58-69.69,22.84-106.42,27.17-16.88,2-30.86,1.74-35.48-1.58-14.68-10.55-12.16-39.11-11.84-39.44,0,0,20.24-24,40.27-6.42,1.73,.4,3.89,.67,6.42,.84,23.65,1.57,78.78-6.16,97.22-8.64,18.81,0,18.35-4.59,35.77-12.94,17.43-4.69,23.39,5.11,23.39,5.11h-6.88s7.51,3.82,11.01,11.96-5.21,25.74-5.21,25.74Z" fill="#ffd0c2"/></g></g><g id="Hair_Pieces"><path d="M126.16,14.54S133.82-1.94,142.06,.19c13.62,3.52,32.87,16.4,30.79,24.43-2.07,8.03-10.98,19.99,.8,21.17,11.78,1.18,21.75-.23,20.5,6.02-1.25,6.25-21.19,14.94-21.19,14.94,0,0,14.55-9.18,14.69-12.74,.14-3.56-8.58,2.77-15.24-3.62-6.66-6.38-13.27-10.05-8.24-19.13s-4.63-19.2-17.96-20.78c-13.6-1.6-20.05,4.06-20.05,4.06Z" fill="#fa0"/><path d="M124.1,40.58s-16.8-3.81-32.94,26.16c-5.45,10.13-4.43-17.21-4.43-18.7s15.43-43.83,28.07-27.54c12.63,16.29,9.31,20.08,9.31,20.08Z" fill="#ffbc00"/><path d="M74.59,76.7s1.94,8.29,0,11.2-19.76,16.88-11.98,32.84c7.77,15.96,11.01,14.55,11.01,14.55,0,0-15.06-11.33-11.33-21.91,3.72-10.59,14.58-23.18,15.55-26.17s-3.24-10.51-3.24-10.51Z" fill="#fa0"/><path d="M125.46,44.79s12.27,20.69,39.55,14.17c11.05-2.18,2.91,12.02-1.57,23.91s-2.95,18.24,8.97,17.23c11.92-1.01,28.42,9.92,4.65,17.64-23.12,7.51-39.81,11.74-22.69,21.15,17.12,9.4,34.61,13.26,33.21-.43-2.25,2.92-14.56,8.02-27.7-2.11-13.15-10.13,18.15-4.45,26.5-14.7,8.35-10.25,15.56-6.92,1.86-28.66-13.69-21.75-7.88-44.14-7.88-44.14,0,0-38.67-40.4-48.99-24.74-10.32,15.66-5.91,20.68-5.91,20.68Z" fill="#ffc943"/><path d="M63.47,115.44c1.38,1.74,3.43,3.1,6.49,3.3,8.96,.6,8.26-9,6.03-12.63l-.03-.05c-.14-.18-.25-.35-.37-.52-.21-.32-.39-.62-.53-.9-.52-1.04-1.57-1.56-1.91-1.97-.09-.13-.11-.24-.06-.35,.24-.41,1.7-.85,5.88-1.8,1.37-.31,3.03-.68,5.03-1.12,9.14-2.02,7.65-7.55,4.11-12.43-2.53-3.47-6.09-6.61-7.61-7.93-3.69-3.2,3.86-3.71,13.29-9.99,9.43-6.28,.57-18.83,.05-21.14-.53-2.3-1.13-3.68,1-7.59,1.5-2.75,14.17-11.65,22.5-7.25s7.49,8.75,7.49,8.75c0,0,1.62-18.28-17.64-14.03-11.24,2.48-20.02,11.53-19.83,15.63,0,0,0,.03,.01,.1,.01,.09,.02,.23,.05,.44,.68,4.31,7.05,12.74,4.86,17.22-2.29,4.67-10.53,8.12-15.63,8.38-5.09,.25-9.83,5.64-3.16,10.76,.71,.54,1.49,1.12,2.33,1.73,.03,.03,.06,.04,.08,.05,.01,0,.01,0,.02,.02h.01c3.62,2.61,7.97,5.64,9.85,8.32,1.73,2.44,1.41,4.59-3.34,5.89-.25,.07-.52,.14-.77,.2-3.72,.98-7.04,1.56-9.71,2.03-5.1,.91-7.79,1.44-6.21,3.66,.59,.82,1.48,1.77,2.46,2.76l.02,.02c3.14,3.16,7.17,6.74,4.9,8.11-2.99,1.79-11.07-3.84-12.47-6.66,0,0-.08,5.35,2.81,9Z" fill="#ffc943"/><path d="M128.89,28.77s-3.48-24.96-15.95-21.72c-12.47,3.24-48.29,41.97-44.11,51.01,4.18,9.04,3.29,14.08-.34,12.09,8.25,1.91,12.07-8.16,9.48-13.58-2.59-5.42,33.89-49.82,50.92-27.79Z" fill="#ffc943"/></g></g></g></svg>