<?xml version="1.0" encoding="UTF-8"?><svg id="Layer_2" xmlns="http://www.w3.org/2000/svg" viewBox="0 0 58.36 61.91"><g id="Icons"><g><path d="M6.71,25.51c.57-1.38,.21-8.45,6.88-8.48,4.53-.02,5.1,.06,11.86,3.04s11.87-.06,8.66,5.44-11.58,14.45-19.26,12.61S6.71,25.51,6.71,25.51Z" fill="#c41c70"/><path d="M52.26,27.3c-.42,1.49,1.48,8.33-6.68,10.08-5.55,1.19-6.27,1.26-15.18,.1s-14.55,3.13-11.74-3.08,11.22-17.13,21.02-17.33c9.8-.19,12.59,10.23,12.59,10.23Z" fill="#11a672"/><path d="M29.18,0C19.44,0,11.54,11.5,11.54,25.68s7.9,25.68,17.64,25.68,17.64-11.5,17.64-25.68S38.92,0,29.18,0Zm0,48.36c-8.27,0-14.99-10.17-14.99-22.68S20.91,3,29.18,3s14.99,10.17,14.99,22.68-6.73,22.68-14.99,22.68Z" fill="#41353a"/><path d="M52.61,61.91H6.04c-.39,0-.73-.22-.9-.56-.62-1.3-1.66-5.59-1.66-19.77,0-20.33,2.12-20.33,2.12-20.33H53.15s1.72-.06,1.72,19.26c0,14.75-.82,19.33-1.33,20.76-.14,.39-.52,.64-.93,.64Z" fill="#207fdf"/><rect y="21.25" width="58.36" height="5.58" rx="1" ry="1" fill="#1966b3"/><circle cx="12.62" cy="24.04" r="1.07" fill="#41353a"/><circle cx="45.75" cy="24.04" r="1.07" fill="#41353a"/><path d="M48.9,45.71c.35,.83,.64,1.11,.24,1.25s-1.95,.7-2.9,.99c-.78,.24-17.39,5.15-21.67,6.4-2.84,.83-5.67,1.65-8.51,2.47-.19,.06-.4,.08-.59,.14-.26,.08-.34-.1-.52-.23-.66-.47-.57-1.19-.71-1.82-.5-2.23-.97-4.47-1.45-6.68l.39-.37-.06-.08-.35,.17c-.19-.87-.38-1.69-.55-2.52-.34-1.65-.67-3.29-1-4.94-.15-.77-.32-1.53-.41-2.31-.02-.21,.17-.49,.34-.66,.38-.39,.8-.74,1.21-1.1,.1-.09,.25-.14,.39-.17,3.94-1.07,7.88-2.13,11.82-3.2,2.41-.65,4.82-1.32,7.24-1.97,2.01-.54,4.03-1.07,6.05-1.59,.39-.1,.79-.19,1.2-.21,.54-.03,.98,.22,1.38,.58,.12,.11,.29,.17,.44,.25l.09-.1c1.37,2.59,2.77,5.17,4.1,7.78,1.31,2.58,2.77,5.09,3.83,7.9Zm-25.18,5.04h-.02c.08,.31,.16,.62,.25,.93,.24,.85,.67,1.27,1.31,1.3,.67,.03,1.78-.66,2.05-1.19,.56-1.09-.14-2.07-.23-3.1-.03-.33-.29-.64-.42-.97-.19-.48-.81-.9-1.31-.8-.61,.13-1.21,.36-1.63,.84-.24,.28-.54,.67-.51,.98,.06,.68,.32,1.34,.5,2Zm-8.67-.3c.92-.5,1.8-.95,2.64-1.47,.31-.19,.56-.55,.47-1-.2-1-.39-2.01-.61-3.01-.18-.8-.72-1.05-1.47-.7-.6,.28-1.18,.61-1.78,.88-.28,.13-.33,.28-.27,.57,.29,1.35,.56,2.71,.85,4.07,.04,.19,.1,.38,.17,.65Zm14.42-12.82c-1.17,.26-2.01,1.02-1.45,2.42,.21,.52,.35,1.07,.54,1.6,.16,.46,.47,.84,.95,.93,.77,.14,1.42-.18,1.96-.71,.47-.46,.46-1.03,.27-1.61-.19-.56-.4-1.12-.6-1.67-.3-.82-.83-1.12-1.67-.96Zm.6,6.88c-.39,.06-.61,.17-.46,.6,.3,.88,.62,1.75,.85,2.64,.09,.36,.64,.8-.03,1.16,0,0-.01,.03-.03,.06l.18,.22c-.45,.41-.85,.36-1.09-.11l.29-.15c-.47-.03-.56-.35-.67-.7-.22-.71-.45-1.41-.7-2.1-.27-.75-.28-.74-.98-.33-.04,.02-.07,.06-.11,.07-.28,.09-.32,.24-.23,.52,.36,1.15,.68,2.3,1.05,3.45,.21,.65,.84,1.02,1.49,.94,.55-.07,1.07-.29,1.4-.72,.26-.35,.56-.89,.46-1.24-.39-1.45-.92-2.86-1.41-4.31Zm-7.48-1.97c.2-.11,.36-.21,.53-.28,.37-.14,.38-.41,.15-.64-.19-.19-.47-.39-.71-.39-.81-.02-1.49,.33-1.95,1.02-.38,.58-.32,1.18,.01,1.77,.31,.55,.81,.65,1.38,.58,.16-.02,.36-.05,.47,.03,.16,.11,.34,.31,.34,.47,0,.17-.15,.45-.3,.5-.14,.05-.36-.14-.53-.23-.05-.03-.08-.11-.14-.2-.25,.11-.49,.19-.71,.33-.09,.06-.18,.24-.16,.34,.1,.47,.65,.85,1.14,.83,1.1-.05,2.27-1,2-2.5-.16-.92-.71-1.28-1.63-1.08-.1,.02-.23,.09-.29,.05-.19-.12-.45-.25-.49-.43-.04-.16,.15-.39,.24-.58,.18,.08,.36,.16,.53,.25,.04,.02,.06,.09,.13,.18Zm5.15-.92c-.35,.2-.73,.33-.96,.6-.11,.13,.06,.51,.1,.77,0,.06,.03,.13,0,.17-.09,.13-.18,.35-.3,.36-.14,.02-.4-.1-.44-.22-.27-.82-.52-1.65-.74-2.49-.08-.31,.15-.56,.42-.51,.21,.04,.37,.32,.56,.5,.11,.1,.27,.29,.32,.27,.26-.13,.66-.28,.7-.48,.11-.53-.5-1.15-1.08-1.21-1.33-.16-2.46,1.06-2.15,2.36,.14,.6,.33,1.2,.53,1.79,.28,.79,.71,1.13,1.38,1.08,1.45-.11,2.52-1.22,1.65-2.97Zm13.51,1.92c-.38,.2-.71,.4-1.06,.56-.1,.05-.34,.03-.37-.03-.17-.33-.34-.68-.4-1.04-.02-.11,.35-.27,.54-.41,.02-.02,.05-.03,.07-.05,.38-.21,.07-.45,.01-.66-.07-.26-.27-.21-.45-.12-.2,.1-.39,.2-.6,.31-.06-.1-.09-.15-.12-.2q-.46-.8,.34-1.23c.1-.06,.19-.14,.3-.17,.4-.12,.25-.38,.16-.62-.12-.31-.32-.16-.49-.07-.62,.31-1.24,.63-1.86,.92-.28,.13-.29,.3-.18,.56,.4,.94,.79,1.89,1.18,2.84,.22,.53,.44,1.05,.68,1.61,.72-.37,1.4-.71,2.07-1.07,.58-.31,.59-.36,.3-.96-.02-.05-.06-.09-.12-.18Zm-1.81-5.63c-.54-1.2-1.06-2.39-1.6-3.57-.1-.21-.13-.64-.54-.43-.37,.19-.04,.47,.03,.67,.27,.68,.59,1.35,.9,2.02-.59-.43-1.11-.91-1.62-1.4-.84-.8-.57-.67-1.49-.27-.25,.11-.33,.23-.2,.5,.18,.35,.33,.71,.48,1.07,.36,.85,.72,1.71,1.1,2.55,.04,.1,.27,.19,.38,.17,.21-.04,.22-.2,.12-.4-.23-.47-.42-.95-.62-1.43-.08-.19-.14-.39-.21-.58l.11-.07c.37,.35,.75,.69,1.12,1.04q.88,.85,1.94,.25s.04-.04,.1-.1Zm-4.78,.56c.05,.2,.16,.37,.12,.5-.08,.24-.19,.56-.38,.64-.19,.08-.5-.06-.73-.17-.12-.06-.18-.26-.24-.4-.31-.75-.64-1.49-.9-2.26-.15-.43-.33-.53-.7-.29-.06,.04-.13,.06-.2,.09-.39,.14-.42,.37-.26,.74,.34,.78,.64,1.58,.92,2.39,.31,.87,.98,1.25,1.87,1.02,.91-.24,1.52-1.03,1.26-1.77-.38-1.09-.85-2.15-1.29-3.21-.04-.09-.27-.19-.3-.16-.1,.09-.18,.23-.2,.36-.01,.1,.08,.21,.12,.32,.31,.75,.62,1.5,.91,2.21Zm-3.89,6.51c.18-.1,.34-.19,.5-.28,.3-.15,.51-.14,.6,.25,.06,.25,.18,.49,.26,.73,.32,.94,.64,1.89,.97,2.83,.06,.17,.1,.41,.37,.27,.24-.12,.46-.28,.7-.41,.24-.13,.3-.27,.2-.55-.44-1.16-.84-2.34-1.29-3.5-.13-.33-.05-.5,.25-.65,.52-.26,.55-.45,.16-.94-.1,.04-.21,.06-.31,.11-.77,.38-1.55,.76-2.31,1.17-.49,.26-.48,.3-.1,.98Zm7.8,.83c-.18-.6-.29-.65-.73-.42-.15,.08-.31,.15-.46,.24-.26,.16-.42,.18-.55-.17-.35-.94-.72-1.86-1.09-2.79-.37-.94-.37-.93-1.28-.51-.25,.12-.31,.27-.21,.52,.55,1.42,1.11,2.83,1.64,4.25,.12,.33,.27,.36,.54,.21,.65-.35,1.31-.68,1.95-1.04,.11-.06,.16-.25,.19-.3Zm4.21-7.78s-.11,.02-.16,.04c-.83,.41-1.65,.82-2.47,1.25-.09,.05-.16,.27-.13,.38,.12,.41,.27,.45,.68,.22,.26-.15,.48-.27,.65,.13,.38,.89,.8,1.76,1.21,2.64,.14,.31,.3,.61,.46,.95,.31-.16,.54-.3,.79-.41,.3-.12,.34-.27,.19-.56-.51-1.04-.98-2.09-1.48-3.14-.11-.23-.18-.41,.12-.57,.61-.32,.6-.36,.13-.94Zm-2.51-4.7c.15-.08,.26-.15,.37-.21,.21-.13,.44-.22,.25-.56-.17-.31-.37-.25-.61-.13-.69,.34-1.38,.67-2.06,1.03-.1,.05-.2,.24-.19,.35,.04,.3,.18,.46,.53,.29,.55-.26,.56-.23,.82,.32,.34,.72,.68,1.44,1.03,2.15,.35,.72,.34,.7,1.08,.39,.34-.14,.36-.31,.2-.6-.19-.36-.36-.73-.53-1.09-.3-.64-.59-1.28-.89-1.94Zm-21,14.89c.31-.17,.57-.34,.84-.45,.29-.12,.33-.29,.26-.57-.34-1.36-.66-2.73-.99-4.09-.03-.11-.07-.21-.13-.36-.26,.12-.49,.26-.73,.34-.35,.11-.43,.3-.35,.65,.32,1.35,.62,2.71,.94,4.06,.03,.13,.1,.26,.17,.42Zm8.36-11.78c.03,.33-.02,.68,.09,.75,.21,.12,.53,.12,.77,.06,.36-.1,.7-.27,1.02-.47,.25-.15,.53-.35,.67-.59,.13-.22,.19-.58,.08-.79-.08-.17-.46-.28-.69-.25-.32,.04-.61,.23-.92,.35-.23,.09-.46,.16-.69,.23l-.07-.15c.1-.07,.19-.15,.3-.21,.22-.11,.46-.19,.66-.32,.69-.42,.79-.81,.42-1.53,.08,0,.17,.02,.21-.02,.12-.11,.22-.24,.33-.37-.17-.06-.33-.15-.5-.16-.08,0-.16,.14-.26,.21-.17,.12-.34,.24-.52,.33-.21,.1-.44,.14-.65,.24-.88,.44-.98,1.02-.31,1.72-.31,.65-.31,.65,.06,.97Zm-12.27,4.78l-.14,.04c-.21-.34-.38-.71-.63-1.02-.23-.28-.35-.49,.04-.72,.07-.04,.07-.2,.08-.3,0-.02-.16-.08-.21-.06-.49,.22-.97,.46-1.44,.7-.07,.04-.15,.19-.12,.24,.04,.08,.16,.13,.25,.19,.14,.09,.33,.13,.42,.25,.39,.52,.74,1.07,1.13,1.59,.11,.15,.31,.36,.46,.35,.3-.02,.51-.22,.56-.57,.07-.56,.16-1.12,.28-1.67,.13-.56,.04-1.2,.52-1.66,.05-.05,0-.2,0-.39-.43,.2-.79,.34-1.12,.53-.13,.07-.21,.25-.32,.38,.15,.02,.3,.03,.45,.05,.03,0,.05,.03,.15,.08l-.34,1.99Zm11.05-4.79l-.15,.03c-.08-.31-.13-.64-.27-.94-.08-.19-.26-.41-.44-.46-.5-.12-1.49,.43-1.67,.9-.05,.14,0,.36,.07,.5,.03,.06,.31,.09,.36,.03,.11-.13,.16-.32,.22-.5,.03-.09-.01-.29,.01-.29,.21-.05,.48-.16,.62-.07,.25,.16,.03,.35-.11,.48-.13,.12-.28,.2-.4,.33-.19,.19-.42,.37-.53,.6-.08,.17-.08,.51,.03,.62,.14,.14,.45,.19,.66,.14,.24-.06,.43-.28,.66-.4,.2-.11,.43-.16,.62-.28,.23-.14,.49-.28,.64-.5,.08-.12-.03-.39-.06-.59h-.14l-.12,.39Zm6.54-3.42c-.13,.18-.27,.31-.34,.47-.17,.35-.55,.55-.84,.39-.1-.05-.2-.18-.22-.29-.01-.06,.12-.18,.21-.22,.31-.15,.63-.29,.95-.42,.26-.11,.33-.29,.16-.51-.11-.14-.24-.3-.4-.37-.67-.33-1.7,.21-1.86,.98-.1,.47,.02,.9,.42,1.2,.46,.35,.95,.21,1.38-.04,.37-.22,.72-.5,.68-1.02,0-.02-.03-.04-.14-.18Zm-11.36,5.99c-.46,.12-.56-.08-.62-.37-.12-.59-.27-1.18-.42-1.77-.04-.17-.12-.33-.19-.54-.33,.16-.6,.29-.86,.44-.06,.03-.12,.13-.12,.2,0,.06,.1,.17,.15,.16,.32-.03,.34,.21,.39,.42,.11,.45,.21,.9,.32,1.35,.08,.3,.16,.59-.16,.81-.04,.03-.05,.16-.03,.23,0,.03,.13,.07,.18,.05,.41-.18,.81-.37,1.21-.58,.07-.04,.08-.19,.16-.4Zm1.2-2.3h.02c-.04-.17-.09-.34-.13-.51-.23-.95-.27-.97-1.11-.43-.01,0-.03,0-.04,.02-.04,.07-.1,.14-.11,.21,0,.04,.1,.08,.15,.12,.12,.11,.31,.2,.36,.34,.17,.52,.31,1.05,.42,1.59,.03,.18-.08,.38-.13,.58-.02,.09-.04,.17-.07,.26,.08,.01,.17,.06,.24,.03,.37-.16,.74-.33,1.1-.51,.06-.03,.12-.14,.11-.21,0-.06-.1-.17-.15-.17-.33,.02-.36-.23-.41-.45-.07-.29-.16-.59-.23-.88Zm-4.25,1.6c-.34,.15-.64,.28-.93,.44-.08,.04-.1,.18-.15,.28,.09,.04,.18,.08,.27,.12,.09,.04,.25,.09,.25,.14,.04,.51,.52,1.05-.08,1.52-.04,.03-.06,.17-.03,.19,.05,.05,.16,.09,.22,.06,.42-.19,.84-.39,1.24-.62,.05-.03,0-.23,0-.35-.42,.05-.39-.29-.46-.54-.11-.4-.21-.8-.33-1.24Zm-.44,.07c.16-.32,.29-.54,.37-.77,0-.02-.26-.21-.39-.2-.27,.02-.55,.42-.44,.63,.06,.12,.23,.18,.45,.34Zm22.71,10.39l.03,.15,1.67-.1c-.14-.13-.21-.26-.27-.25-.48,.05-.95,.13-1.43,.2Zm-.27,.11l-.02-.18-.95,.09,.02,.16,.95-.07Z" fill="#1966b3"/><path d="M23.72,50.75c-.18-.67-.44-1.33-.5-2-.03-.31,.27-.7,.51-.98,.42-.48,1.01-.71,1.63-.84,.5-.1,1.12,.31,1.31,.8,.13,.33,.39,.63,.42,.97,.09,1.03,.79,2.01,.23,3.1-.27,.53-1.39,1.22-2.05,1.19-.64-.03-1.07-.45-1.31-1.3-.09-.31-.17-.61-.25-.92h.02Zm1.39-.55h0c.1,.38,.2,.76,.3,1.13,.06,.24,.19,.49,.46,.38,.14-.06,.3-.36,.26-.5-.24-.99-.52-1.98-.83-2.95-.03-.11-.31-.23-.43-.19-.11,.04-.24,.29-.21,.42,.12,.58,.29,1.15,.45,1.72Z" fill="#e5da1a"/><path d="M15.05,50.45c-.07-.27-.13-.46-.17-.65-.28-1.36-.55-2.72-.85-4.07-.06-.29-.01-.44,.27-.57,.6-.28,1.18-.61,1.78-.88,.75-.35,1.29-.1,1.47,.7,.22,1,.41,2,.61,3.01,.09,.45-.16,.8-.47,1-.84,.52-1.73,.97-2.64,1.47Zm.94-2.09c.14,.16,.22,.35,.34,.37,.12,.02,.35-.09,.39-.2,.07-.21,.09-.46,.05-.68-.15-.76-.33-1.52-.51-2.28-.05-.2-.15-.4-.43-.3-.21,.08-.4,.16-.33,.46,.15,.62,.28,1.24,.41,1.86,.06,.3,.09,.63,.56,.59l-.48,.17Z" fill="#e5da1a"/><path d="M29.47,37.63c.84-.16,1.37,.14,1.67,.96,.2,.56,.41,1.11,.6,1.67,.19,.58,.2,1.15-.27,1.61-.54,.53-1.19,.85-1.96,.71-.48-.09-.78-.47-.95-.93-.19-.53-.34-1.08-.54-1.6-.56-1.41,.28-2.16,1.45-2.42Zm-.2,1.97h.01c.2,.55,.38,1.12,.62,1.66,.07,.15,.31,.21,.47,.32,.08-.15,.27-.33,.24-.44-.26-.82-.55-1.64-.88-2.44-.04-.1-.32-.17-.46-.14-.08,.02-.17,.27-.16,.41,.01,.21,.1,.42,.16,.63Z" fill="#e5da1a"/><path d="M30.07,44.51c.49,1.45,1.02,2.86,1.41,4.31,.1,.35-.2,.9-.46,1.24-.32,.43-.84,.65-1.4,.72-.65,.08-1.29-.29-1.49-.94-.36-1.14-.69-2.3-1.05-3.45-.09-.28-.04-.44,.23-.52,.04-.01,.07-.05,.11-.07,.7-.41,.71-.42,.98,.33,.25,.69,.49,1.39,.7,2.1,.11,.34,.2,.67,.67,.7l-.29,.15c.23,.47,.64,.52,1.09,.11l-.18-.22s.02-.06,.03-.06c.67-.36,.13-.8,.03-1.16-.23-.89-.55-1.77-.85-2.64-.15-.43,.07-.54,.46-.6Z" fill="#e5da1a"/><path d="M22.59,42.54c-.06-.09-.08-.16-.13-.18-.17-.09-.35-.17-.53-.25-.09,.2-.28,.42-.24,.58,.05,.18,.31,.31,.49,.43,.06,.04,.19-.03,.29-.05,.91-.2,1.46,.17,1.63,1.08,.26,1.5-.9,2.45-2,2.5-.49,.02-1.04-.37-1.14-.83-.02-.1,.07-.28,.16-.34,.22-.14,.46-.22,.71-.33,.06,.09,.09,.17,.14,.2,.18,.1,.4,.28,.53,.23,.15-.05,.31-.32,.3-.5,0-.16-.19-.36-.34-.47-.11-.08-.31-.05-.47-.03-.57,.07-1.07-.03-1.38-.58-.33-.59-.39-1.19-.01-1.77,.45-.69,1.13-1.04,1.95-1.02,.24,0,.53,.2,.71,.39,.23,.23,.22,.49-.15,.64-.17,.07-.33,.17-.53,.28Z" fill="#e5da1a"/><path d="M27.74,41.62c.87,1.75-.2,2.87-1.65,2.97-.67,.05-1.1-.3-1.38-1.08-.21-.59-.39-1.18-.53-1.79-.31-1.3,.82-2.51,2.15-2.36,.57,.07,1.19,.68,1.08,1.21-.04,.2-.44,.36-.7,.48-.05,.02-.21-.17-.32-.27-.19-.17-.35-.46-.56-.5-.28-.05-.5,.2-.42,.51,.22,.84,.47,1.67,.74,2.49,.04,.12,.3,.23,.44,.22,.11-.01,.21-.23,.3-.36,.03-.04,0-.11,0-.17-.04-.27-.22-.64-.1-.77,.23-.26,.61-.39,.96-.6Z" fill="#e5da1a"/><path d="M41.25,43.54c.06,.09,.1,.13,.12,.18,.29,.6,.28,.65-.3,.96-.67,.36-1.35,.7-2.07,1.07-.24-.56-.46-1.09-.68-1.61-.39-.95-.78-1.9-1.18-2.84-.11-.26-.1-.43,.18-.56,.63-.3,1.24-.62,1.86-.92,.17-.09,.37-.24,.49,.07,.09,.24,.25,.5-.16,.62-.11,.03-.2,.12-.3,.17q-.8,.43-.34,1.23s.06,.1,.12,.2c.2-.11,.4-.21,.6-.31,.18-.09,.38-.14,.45,.12,.06,.22,.37,.45-.01,.66-.03,.01-.05,.03-.07,.05-.19,.14-.56,.3-.54,.41,.05,.36,.23,.71,.4,1.04,.03,.06,.27,.07,.37,.03,.35-.16,.69-.36,1.06-.56Z" fill="#e5da1a"/><path d="M39.44,37.91c-.06,.06-.08,.09-.1,.1q-1.06,.6-1.94-.25c-.37-.35-.75-.69-1.12-1.04l-.11,.07c.07,.19,.13,.39,.21,.58,.2,.48,.4,.96,.62,1.43,.1,.2,.08,.36-.12,.4-.11,.02-.34-.07-.38-.17-.38-.84-.73-1.7-1.1-2.55-.15-.36-.31-.72-.48-1.07-.13-.26-.05-.39,.2-.5,.91-.4,.65-.53,1.49,.27,.51,.49,1.03,.97,1.62,1.4-.3-.67-.62-1.34-.9-2.02-.08-.2-.4-.47-.03-.67,.41-.21,.44,.22,.54,.43,.55,1.18,1.07,2.37,1.6,3.57Z" fill="#e5da1a"/><path d="M34.66,38.47c-.29-.71-.6-1.46-.91-2.21-.04-.11-.13-.22-.12-.32,.02-.13,.1-.27,.2-.36,.03-.03,.27,.07,.3,.16,.45,1.07,.91,2.13,1.29,3.21,.26,.74-.35,1.53-1.26,1.77-.9,.23-1.56-.15-1.87-1.02-.28-.8-.58-1.6-.92-2.39-.16-.37-.12-.6,.26-.74,.07-.02,.14-.05,.2-.09,.38-.24,.56-.13,.7,.29,.26,.77,.59,1.51,.9,2.26,.06,.15,.12,.34,.24,.4,.23,.11,.54,.25,.73,.17,.19-.08,.3-.4,.38-.64,.04-.13-.07-.3-.12-.5Z" fill="#e5da1a"/><path d="M30.77,44.98c-.38-.68-.39-.72,.1-.98,.76-.4,1.54-.78,2.31-1.17,.1-.05,.21-.08,.31-.11,.39,.49,.36,.68-.16,.94-.3,.15-.38,.31-.25,.65,.45,1.16,.84,2.34,1.29,3.5,.11,.28,.04,.42-.2,.55-.24,.13-.46,.29-.7,.41-.27,.14-.31-.09-.37-.27-.32-.94-.64-1.89-.97-2.83-.08-.25-.21-.48-.26-.73-.09-.39-.31-.4-.6-.25-.16,.08-.32,.18-.5,.28Z" fill="#e5da1a"/><path d="M38.57,45.81c-.03,.06-.08,.24-.19,.3-.64,.36-1.3,.69-1.95,1.04-.28,.15-.42,.11-.54-.21-.53-1.42-1.09-2.84-1.64-4.25-.1-.25-.04-.4,.21-.52,.91-.43,.91-.44,1.28,.51,.37,.93,.74,1.85,1.09,2.79,.13,.35,.3,.33,.55,.17,.14-.09,.3-.16,.46-.24,.44-.23,.56-.18,.73,.42Z" fill="#e5da1a"/><path d="M42.78,38.03c.47,.58,.48,.62-.13,.94-.3,.16-.23,.33-.12,.57,.49,1.04,.97,2.1,1.48,3.14,.14,.29,.1,.44-.19,.56-.25,.1-.48,.25-.79,.41-.16-.34-.32-.64-.46-.95-.41-.88-.82-1.75-1.21-2.64-.17-.4-.39-.28-.65-.13-.41,.23-.56,.19-.68-.22-.03-.11,.04-.33,.13-.38,.81-.43,1.64-.84,2.47-1.25,.05-.02,.11-.03,.16-.04Z" fill="#e5da1a"/><path d="M40.27,33.32c.3,.66,.6,1.3,.89,1.94,.17,.37,.34,.74,.53,1.09,.15,.29,.13,.46-.2,.6-.74,.31-.73,.33-1.08-.39-.34-.72-.69-1.43-1.03-2.15-.26-.55-.27-.58-.82-.32-.36,.17-.5,.02-.53-.29-.01-.11,.09-.3,.19-.35,.68-.36,1.37-.69,2.06-1.03,.24-.12,.44-.18,.61,.13,.19,.34-.03,.43-.25,.56-.11,.06-.22,.13-.37,.21Z" fill="#e5da1a"/><path d="M19.26,48.22c-.07-.17-.14-.29-.17-.42-.31-1.35-.61-2.71-.94-4.06-.08-.35,0-.54,.35-.65,.24-.08,.47-.21,.73-.34,.05,.15,.1,.25,.13,.36,.33,1.36,.65,2.73,.99,4.09,.07,.29,.04,.45-.26,.57-.28,.11-.53,.28-.84,.45Z" fill="#e5da1a"/><path d="M27.63,36.44c-.38-.32-.38-.33-.06-.97-.67-.7-.57-1.28,.31-1.72,.2-.1,.44-.14,.65-.24,.18-.09,.35-.21,.52-.33,.09-.06,.18-.21,.26-.21,.17,.01,.34,.1,.5,.16-.11,.12-.21,.26-.33,.37-.04,.04-.13,.01-.21,.02,.38,.71,.27,1.1-.42,1.53-.21,.13-.45,.2-.66,.32-.11,.06-.2,.14-.3,.21l.07,.15c.23-.08,.46-.15,.69-.23,.31-.12,.61-.31,.92-.35,.23-.03,.61,.08,.69,.25,.1,.2,.04,.57-.08,.79-.14,.25-.41,.44-.67,.59-.32,.19-.66,.37-1.02,.47-.24,.07-.56,.06-.77-.06-.11-.06-.06-.42-.09-.75Zm1.82-.63c-.39,.19-.74,.34-1.06,.53-.1,.06-.15,.22-.22,.34,.13,.05,.28,.17,.37,.13,.4-.16,.78-.35,1.16-.57,.07-.04,.1-.26,.05-.34-.04-.07-.22-.07-.3-.09Zm-1.05-1.89c-.52,.12-.64,.4-.55,.68,.05,.15,.35,.32,.52,.3,.34-.04,.46-.36,.38-.65-.04-.16-.28-.26-.36-.33Z" fill="#e5da1a"/><path d="M15.36,41.22l.34-1.99c-.1-.06-.13-.08-.15-.08-.15-.02-.3-.04-.45-.05,.1-.13,.18-.3,.32-.38,.34-.19,.7-.33,1.12-.53,0,.19,.06,.34,0,.39-.48,.46-.39,1.1-.52,1.66-.12,.55-.21,1.11-.28,1.67-.05,.35-.26,.55-.56,.57-.15,0-.34-.2-.46-.35-.39-.52-.74-1.07-1.13-1.59-.09-.12-.28-.17-.42-.25-.09-.06-.21-.11-.25-.19-.02-.06,.05-.21,.12-.24,.47-.25,.95-.48,1.44-.7,.05-.03,.22,.04,.21,.06,0,.1-.01,.26-.08,.3-.4,.23-.27,.43-.04,.72,.25,.31,.42,.68,.63,1.02l.14-.04Z" fill="#e5da1a"/><path d="M26.41,36.43l.12-.38h.14c.03,.19,.14,.45,.06,.58-.15,.21-.41,.36-.64,.5-.19,.12-.42,.17-.62,.28-.23,.12-.42,.35-.66,.4-.21,.05-.52,0-.66-.14-.11-.11-.11-.44-.03-.62,.11-.23,.34-.41,.53-.6,.12-.12,.28-.21,.4-.33,.14-.14,.36-.33,.11-.48-.14-.09-.42,.02-.62,.07-.02,0,.02,.2-.01,.29-.05,.17-.1,.37-.22,.5-.05,.06-.33,.03-.36-.03-.07-.14-.12-.36-.07-.5,.18-.48,1.17-1.03,1.67-.9,.18,.04,.36,.27,.44,.46,.13,.29,.18,.62,.27,.94l.15-.03Zm-1.05-.08c-.3,.21-.58,.38-.53,.8,.62-.03,.76-.23,.53-.8Z" fill="#e5da1a"/><path d="M32.95,33.01c.1,.13,.13,.15,.14,.18,.05,.52-.3,.8-.68,1.02-.44,.26-.92,.39-1.38,.04-.4-.3-.51-.73-.42-1.2,.16-.78,1.18-1.31,1.86-.98,.16,.08,.29,.23,.4,.37,.17,.22,.1,.4-.16,.51-.32,.13-.64,.27-.95,.42-.09,.04-.22,.16-.21,.22,.02,.11,.12,.23,.22,.29,.3,.16,.68-.04,.84-.39,.08-.16,.21-.29,.34-.47Zm-.77-.27l-.02-.21c-.21-.02-.46-.13-.61-.04-.15,.08-.2,.35-.3,.53l.13,.11,.8-.39Z" fill="#e5da1a"/><path d="M21.59,39c-.08,.21-.09,.36-.16,.4-.39,.21-.8,.39-1.21,.58-.05,.02-.17-.02-.18-.05-.02-.07-.01-.2,.03-.23,.33-.22,.24-.51,.16-.81-.11-.45-.21-.9-.32-1.35-.05-.2-.06-.45-.39-.42-.05,0-.15-.1-.15-.16,0-.07,.06-.17,.12-.2,.26-.15,.53-.27,.86-.44,.07,.2,.15,.36,.19,.54,.15,.59,.29,1.18,.42,1.77,.06,.29,.16,.5,.62,.37Z" fill="#e5da1a"/><path d="M22.79,36.7c.08,.29,.16,.58,.23,.88,.06,.23,.08,.47,.41,.45,.05,0,.14,.1,.15,.17,0,.07-.05,.18-.11,.21-.36,.18-.73,.35-1.1,.51-.06,.03-.16-.02-.24-.03,.02-.09,.04-.17,.07-.26,.05-.19,.16-.4,.13-.58-.1-.54-.25-1.07-.42-1.59-.04-.14-.23-.23-.36-.34-.05-.04-.15-.09-.15-.12,0-.07,.07-.14,.11-.21,0-.01,.03-.01,.04-.02,.84-.54,.88-.52,1.11,.43,.04,.17,.09,.33,.13,.5h-.02Z" fill="#e5da1a"/><path d="M18.54,38.3c.12,.44,.22,.84,.33,1.24,.07,.25,.04,.59,.46,.54,0,.12,.05,.33,0,.35-.4,.23-.82,.42-1.24,.62-.06,.03-.16-.02-.22-.06-.03-.02-.01-.16,.03-.19,.6-.48,.12-1.01,.08-1.52,0-.05-.16-.1-.25-.14-.09-.04-.18-.08-.27-.12,.05-.1,.07-.23,.15-.28,.29-.16,.59-.28,.93-.44Z" fill="#e5da1a"/><path d="M18.1,38.37c-.22-.16-.39-.22-.45-.34-.11-.21,.16-.61,.44-.63,.13-.01,.4,.18,.39,.2-.09,.23-.21,.45-.37,.77Z" fill="#e5da1a"/><path d="M40.81,48.76c.48-.07,.95-.15,1.43-.2,.06,0,.14,.12,.27,.25l-1.67,.1-.03-.15Z" fill="#1966b3"/><path d="M40.55,48.87l-.95,.07-.02-.16,.95-.09,.02,.18Z" fill="#1966b3"/><path d="M25.11,50.21c-.15-.57-.33-1.14-.45-1.72-.03-.13,.1-.38,.21-.42,.11-.04,.4,.08,.43,.19,.3,.98,.58,1.96,.83,2.95,.04,.15-.12,.45-.26,.5-.27,.11-.4-.13-.46-.38-.1-.38-.2-.75-.3-1.13h0Z" fill="#1966b3"/><path d="M16,48.36l.48-.17c-.47,.04-.49-.29-.56-.59-.13-.62-.26-1.24-.41-1.86-.07-.3,.12-.38,.33-.46,.27-.1,.38,.09,.43,.3,.18,.76,.36,1.51,.51,2.28,.04,.22,.02,.47-.05,.68-.04,.11-.27,.22-.39,.2-.12-.02-.2-.21-.34-.37Z" fill="#1966b3"/><path d="M29.27,39.6c-.06-.21-.15-.42-.16-.63,0-.14,.08-.39,.16-.41,.14-.03,.42,.04,.46,.14,.32,.8,.61,1.61,.88,2.44,.03,.11-.15,.29-.24,.44-.16-.1-.41-.17-.47-.32-.24-.54-.42-1.1-.62-1.66h-.01Z" fill="#1966b3"/><path d="M29.45,35.8c.08,.02,.25,.02,.3,.09,.05,.08,.01,.3-.05,.34-.37,.21-.76,.41-1.16,.57-.09,.04-.25-.08-.37-.13,.07-.12,.12-.28,.22-.34,.32-.19,.67-.34,1.06-.53Z" fill="#1966b3"/><path d="M28.4,33.91c.08,.07,.32,.17,.36,.33,.08,.29-.04,.62-.38,.65-.17,.02-.47-.15-.52-.3-.1-.29,.03-.57,.55-.68Z" fill="#1966b3"/><path d="M25.36,36.35c.23,.57,.09,.77-.53,.8-.05-.41,.23-.58,.53-.8Z" fill="#1966b3"/><path d="M32.18,32.74l-.8,.39-.13-.11c.09-.18,.15-.45,.3-.53,.15-.08,.4,.02,.61,.04l.02,.21Z" fill="#1966b3"/></g></g></svg>