<?xml version="1.0" encoding="UTF-8"?><svg id="Layer_2" xmlns="http://www.w3.org/2000/svg" viewBox="0 0 48.54 44.81"><g id="Icons"><g id="Pen"><path d="M48.38,9.76l-9.36,9.35c-.3,.31-.79,.31-1.09,0l-.44-.43,9.29-9.29-3.19-3.43,1.03-.94,3.79,4.08c.18,.19,.16,.49-.03,.66Z" fill="#14528f"/><path d="M33.61,1.38h3.94c2.22,0,4.02,1.8,4.02,4.02v14.9h-11.97V5.4c0-2.22,1.8-4.02,4.02-4.02Z" transform="translate(18.09 -21.98) rotate(45)" fill="#276ea8"/><path d="M7.8,39.18l9.74-1.83-8.47-8.47-1.73,9.84c-.05,.27,.19,.5,.46,.45Z" fill="#eaeaea"/><rect x="10.28" y="19.82" width="20.68" height="11.97" transform="translate(-12.21 22.14) rotate(-45)" fill="#14528f"/><path d="M40.19,7.77l-10.54,10.54,1.73,1.73,1.73,1.73,10.54-10.54c.13-.13,.25-.27,.36-.41,1.62-2.13-1.28-5.03-3.41-3.41-.14,.11-.28,.23-.41,.36Z" fill="#14528f"/><polygon points="30.43 20.99 28.7 19.26 14.08 33.88 17.54 37.35 32.16 22.72 30.43 20.99" fill="#124570"/><path d="M41.94,.97h3.09c.9,0,1.63,.73,1.63,1.63v2.48h-6.35V2.6c0-.9,.73-1.63,1.63-1.63Z" transform="translate(14.87 -29.87) rotate(45)" fill="#276ea8"/><path d="M46.04,4.97c.49-.49,.6-1.22,.33-1.82-.6-.27-1.33-.16-1.82,.33l-1.75,1.75,1.49,1.49,1.75-1.75Z" fill="#14528f"/><path d="M7.54,39.12c.08,.04,.16,.07,.26,.05l9.74-1.83-3.52-3.52-6.49,5.29Z" fill="#e2dfe0"/><path d="M7.55,37.55l-.21,1.18c-.05,.27,.19,.5,.46,.45l1.16-.22-1.41-1.41Z" fill="#1e1e1e"/><path d="M8.64,38.96c-2.69,.52-5.78,.62-8.12,1.91,1.42,.85,3.48,.79,5.16,.92,8.13,.26,16.3-.67,24.45-.61,.47,0,1.31,.14,1.01,.83-.08,.13-.1,.12-.14,.16-.66,.4-1.37,.46-2.02,.64-5.36,1-10.76,1.82-16.21,2,5.89-.78,12.02-1.7,17.68-3.31,.04,0-.2,.06-.06,.46,.05,.08,.09,.1,.13,.13-8.24-.06-16.58,1.01-24.88,.46-1.02-.11-6.31-.4-5.57-1.97,.35-.45,.87-.53,1.35-.69,2.39-.57,4.8-.78,7.22-.93h0Z" fill="#41353a"/></g></g></svg>