<?xml version="1.0" encoding="UTF-8"?><svg id="Layer_2" xmlns="http://www.w3.org/2000/svg" viewBox="0 0 51.92 41.53"><g id="Icons"><g id="Zine"><polygon points="1.11 0 0 1.82 .56 41.53 26.51 38.81 26.51 0 1.11 0" fill="#999"/><polygon points="1.52 40.29 26.51 38.81 26.51 0 1.11 0 1.52 40.29" fill="#ccc"/><polygon points="4.15 21.45 23.92 20.73 23.92 1.82 3.83 1.82 4.15 21.45" fill="#999"/><g><polygon points="27.01 38.34 27.01 .5 51.41 .5 51.02 39.76 27.01 38.34" fill="#f5f4f5"/><path d="M50.91,1l-.38,38.23-23.01-1.36V1h23.39M51.92,0H26.51V38.81l25,1.48L51.92,0h0Z" fill="#c6c6c6"/></g><path d="M45.93,2.73c-.36-.05-15.69,2.12-15.61,7.12s5.59,4.84,7.77,11.59c2.18,6.75-7.54,2.24-7.77,6.99s8.08,10.17,12.9,8.5,9.87-13,5.9-19.25c-3.96-6.25,6.14-13.67-3.18-14.96Z" fill="#ccc"/><ellipse cx="41.97" cy="13.11" rx="4.66" ry="5.21" fill="#df207f"/><path d="M39.22,5.34c0,5.39,3.91,9.77,8.74,9.77,1.37,0,2.67-.36,3.82-.99l.14-14.11h-11.27c-.9,1.54-1.43,3.37-1.43,5.34Z" fill="#3d3d3d"/><g><line x1="4.54" y1="24.3" x2="23.79" y2="23.55" fill="none" stroke="#3d3d3d" stroke-linecap="round" stroke-miterlimit="10"/><line x1="4.56" y1="28.09" x2="23.81" y2="27.34" fill="none" stroke="#3d3d3d" stroke-linecap="round" stroke-miterlimit="10"/><line x1="4.57" y1="31.88" x2="23.82" y2="31.13" fill="none" stroke="#3d3d3d" stroke-linecap="round" stroke-miterlimit="10"/><line x1="4.58" y1="35.66" x2="23.83" y2="34.91" fill="none" stroke="#3d3d3d" stroke-linecap="round" stroke-miterlimit="10"/></g><g><line x1="28.75" y1="2.6" x2="37.76" y2="2.84" fill="none" stroke="#3d3d3d" stroke-linecap="round" stroke-miterlimit="10"/><line x1="28.74" y1="5.89" x2="37.76" y2="6.13" fill="none" stroke="#3d3d3d" stroke-linecap="round" stroke-miterlimit="10"/><line x1="28.74" y1="9.17" x2="37.75" y2="9.41" fill="none" stroke="#3d3d3d" stroke-linecap="round" stroke-miterlimit="10"/><line x1="28.73" y1="12.46" x2="37.75" y2="12.7" fill="none" stroke="#3d3d3d" stroke-linecap="round" stroke-miterlimit="10"/></g><g><line x1="28.73" y1="20.84" x2="47.63" y2="21.34" fill="none" stroke="#3d3d3d" stroke-linecap="round" stroke-miterlimit="10"/><line x1="28.76" y1="24.34" x2="47.65" y2="24.84" fill="none" stroke="#3d3d3d" stroke-linecap="round" stroke-miterlimit="10"/><line x1="28.78" y1="27.84" x2="47.68" y2="28.34" fill="none" stroke="#3d3d3d" stroke-linecap="round" stroke-miterlimit="10"/><line x1="28.81" y1="31.34" x2="47.71" y2="31.84" fill="none" stroke="#3d3d3d" stroke-linecap="round" stroke-miterlimit="10"/><line x1="28.84" y1="34.84" x2="47.74" y2="35.34" fill="none" stroke="#3d3d3d" stroke-linecap="round" stroke-miterlimit="10"/></g><path d="M3.83,1.82l.27,16.68C9.24,13.76,16.76,6.74,22.07,1.82H3.83Z" fill="#3d3d3d"/></g></g></svg>