<?xml version="1.0" encoding="UTF-8"?><svg id="Layer_2" xmlns="http://www.w3.org/2000/svg" viewBox="0 0 20 20"><g id="Sitting"><path id="Icon_awesome-codepen" d="M19.62,6.24L10.48,.14c-.29-.19-.67-.19-.96,0L.38,6.24c-.24,.16-.38,.43-.38,.72v6.09c0,.29,.14,.55,.38,.71l9.14,6.09c.29,.19,.67,.19,.96,0l9.14-6.09c.24-.16,.38-.43,.38-.71V6.95c0-.29-.14-.55-.38-.71h0ZM10.86,2.47l6.73,4.49-3,2.01-3.73-2.49V2.47Zm-1.72,0V6.47l-3.73,2.49-3-2.01L9.14,2.47ZM1.72,8.56l2.15,1.44-2.15,1.44v-2.88Zm7.42,8.97L2.41,13.05l3-2.01,3.73,2.49v4.01Zm.86-5.5l-3.04-2.03,3.04-2.03,3.04,2.03-3.04,2.03Zm.86,5.5v-4.01l3.73-2.49,3,2.01-6.73,4.49Zm7.42-6.09l-2.15-1.44,2.15-1.44v2.88Z"/></g></svg>