<?xml version="1.0" encoding="UTF-8"?><svg id="Layer_2" xmlns="http://www.w3.org/2000/svg" viewBox="0 0 20.51 20"><g id="Sitting"><path id="Icon_awesome-github" d="M6.86,16.11c0,.08-.1,.15-.22,.15-.14,.01-.23-.05-.23-.15s.1-.15,.22-.15,.23,.05,.23,.15Zm-1.29-.19c-.03,.08,.05,.18,.18,.2,.09,.05,.21,0,.26-.08,.03-.08-.05-.18-.18-.22-.1-.03-.21,0-.26,.1Zm1.83-.07c-.12,.03-.2,.11-.19,.2s.12,.14,.24,.11,.2-.11,.19-.19-.12-.13-.24-.12ZM10.13,0C4.65-.11,.12,4.23,0,9.71c0,.13,0,.26,0,.38-.04,4.46,2.79,8.45,7.01,9.89,.53,.1,.72-.23,.72-.5s-.01-1.67-.01-2.54c0,0-2.89,.62-3.5-1.23,0,0-.47-1.2-1.15-1.51,0,0-.95-.65,.07-.64,.67,.09,1.26,.48,1.6,1.07,.57,1.06,1.89,1.46,2.96,.9l.06-.03c.05-.53,.28-1.02,.66-1.39-2.31-.26-4.64-.59-4.64-4.57-.05-.92,.31-1.81,.98-2.44-.31-.92-.28-1.92,.11-2.81,.86-.27,2.85,1.12,2.85,1.12,1.7-.47,3.49-.47,5.19,0,0,0,1.99-1.39,2.85-1.12,.38,.89,.42,1.89,.11,2.81,.69,.62,1.08,1.51,1.07,2.44,0,3.99-2.44,4.31-4.75,4.57,.5,.51,.76,1.21,.7,1.92,0,1.39-.01,3.12-.01,3.46,0,.27,.19,.6,.72,.5,4.21-1.44,7.01-5.43,6.94-9.88C20.49,4.49,15.92-.03,10.32,0c-.07,0-.13,0-.2,0ZM4.02,14.27c-.05,.04-.04,.14,.03,.22s.16,.1,.22,.04,.04-.14-.03-.22-.16-.1-.22-.04Zm-.45-.34c-.03,.05,.01,.12,.1,.16,.05,.04,.13,.03,.17-.02h0c.03-.06-.01-.13-.1-.17-.08-.02-.15-.01-.18,.03Zm1.34,1.47c-.07,.05-.04,.18,.05,.26,.1,.1,.22,.11,.27,.04s.03-.18-.05-.26c-.09-.09-.22-.1-.27-.04Zm-.47-.61c-.07,.04-.07,.15,0,.24s.18,.14,.23,.1c.07-.07,.07-.18,0-.26-.06-.1-.17-.14-.23-.09Z" fill="#2d2527"/></g></svg>