<?xml version="1.0" encoding="UTF-8"?><svg id="Layer_2" xmlns="http://www.w3.org/2000/svg" viewBox="0 0 20 20"><g id="Sitting"><path id="Icon_awesome-linkedin" d="M18.57,0H1.42C.63,0,0,.65,0,1.44V18.56c0,.79,.63,1.44,1.42,1.44H18.57c.79,0,1.43-.65,1.43-1.44V1.44c0-.79-.64-1.44-1.43-1.44ZM6.05,17.14H3.08V7.6h2.97v9.55h0Zm-1.48-10.85c-.95,0-1.72-.77-1.72-1.72,0-.95,.77-1.72,1.72-1.72,.95,0,1.72,.77,1.72,1.72h0c0,.95-.77,1.72-1.72,1.72Zm12.59,10.85h-2.96v-4.64c0-1.11-.02-2.53-1.54-2.53s-1.78,1.2-1.78,2.45v4.72h-2.97V7.6h2.84v1.3h.04c.58-.99,1.66-1.58,2.81-1.54,3,0,3.56,1.98,3.56,4.55v5.23Z" fill="#2d2527"/></g></svg>