<?xml version="1.0" encoding="UTF-8"?><svg id="Layer_2" xmlns="http://www.w3.org/2000/svg" viewBox="0 0 5.02 3.77"><g id="Photo_Background"><path d="M1.43,0c.26,0,.48,.22,.48,.47,0,.14-.06,.26-.16,.36-.29,.25-.55,.59-.62,.88,.05-.01,.16-.04,.28-.04,.5,0,.92,.4,.92,.98s-.5,1.12-1.1,1.12c-.65,0-1.22-.52-1.22-1.39S.41,.74,1.12,.12c.08-.08,.19-.12,.31-.12Zm2.7,0c.26,0,.48,.22,.48,.47,0,.14-.06,.26-.16,.36-.29,.25-.54,.59-.62,.88,.05-.01,.16-.04,.28-.04,.52,0,.92,.4,.92,.98s-.5,1.12-1.09,1.12c-.65,0-1.24-.52-1.24-1.39S3.11,.74,3.83,.12c.08-.08,.18-.12,.3-.12Z"/></g></svg>