<svg xmlns="http://www.w3.org/2000/svg" width="40.933" height="46.982" viewBox="0 0 40.933 46.982">
  <g id="Axure" transform="translate(0)">
    <g id="Group-18" transform="translate(0)">
      <path id="Fill-12" d="M125.6,2.894h0a2.234,2.234,0,0,0-2.1-1.243h-3.666a2.429,2.429,0,0,0-2.281,1.2l-5.434,7.941,4.758,6.507,8.306-11.915a2.273,2.273,0,0,0,.419-2.49" transform="translate(-86.79 -1.651)" fill="#74bb11" fill-rule="evenodd"/>
      <path id="Fill-14" d="M80,2.762l-.005-.008a2.7,2.7,0,0,0-2.294-1.1H74.114a2.245,2.245,0,0,0-2.064,1.157,2.376,2.376,0,0,0,.241,2.5L85.577,23.722,70.3,45.032a2.329,2.329,0,0,0-.205,2.445,2.25,2.25,0,0,0,2.065,1.156h3.667a2.452,2.452,0,0,0,2.186-1.26l17.1-23.565Z" transform="translate(-69.836 -1.651)" fill="#009cd9" fill-rule="evenodd"/>
      <path id="Fill-16" d="M127.4,64.586l-10.66-14.629-4.689,6.464,8.431,11.251.219.1a2.645,2.645,0,0,0,1.063.232h3.585a2.3,2.3,0,0,0,2.018-1.057,2.375,2.375,0,0,0,.032-2.357" transform="translate(-86.761 -21.019)" fill="#eb2084" fill-rule="evenodd"/>
    </g>
  </g>
</svg>
