<svg id="Confluence" xmlns="http://www.w3.org/2000/svg" xmlns:xlink="http://www.w3.org/1999/xlink" width="44.292" height="43.382" viewBox="0 0 44.292 43.382">
  <defs>
    <linearGradient id="linear-gradient" x1="0.991" y1="1.127" x2="0.339" y2="0.378" gradientUnits="objectBoundingBox">
      <stop offset="0.18" stop-color="#0052cc"/>
      <stop offset="1" stop-color="#2684ff"/>
    </linearGradient>
    <linearGradient id="linear-gradient-2" x1="0.009" y1="-0.126" x2="0.662" y2="0.623" xlink:href="#linear-gradient"/>
  </defs>
  <path id="Path_346" data-name="Path 346" d="M1.605,134.227c-.458.759-.972,1.639-1.408,2.341a1.445,1.445,0,0,0,.472,1.947l9.155,5.727a1.389,1.389,0,0,0,1.076.172,1.41,1.41,0,0,0,.875-.659c.366-.623.838-1.432,1.352-2.3,3.627-6.085,7.275-5.341,13.852-2.148l9.078,4.388a1.387,1.387,0,0,0,1.1.049,1.419,1.419,0,0,0,.8-.765L42.31,132.96a1.442,1.442,0,0,0-.7-1.876c-1.916-.916-5.726-2.742-9.155-4.424C20.113,120.568,9.626,120.961,1.605,134.227Z" transform="translate(0 -101.074)" fill="url(#linear-gradient)"/>
  <path id="Path_347" data-name="Path 347" d="M51.263,10.26c.458-.759.972-1.639,1.409-2.341A1.445,1.445,0,0,0,52.2,5.972L43.044.244a1.389,1.389,0,0,0-1.1-.207,1.41,1.41,0,0,0-.9.68c-.366.623-.838,1.432-1.352,2.3C36.058,9.1,32.41,8.355,25.832,5.163L16.783.8a1.388,1.388,0,0,0-1.1-.049,1.418,1.418,0,0,0-.8.765L10.529,11.534a1.441,1.441,0,0,0,.7,1.876c1.916.916,5.726,2.742,9.155,4.424C32.755,23.919,43.242,23.511,51.263,10.26Z" transform="translate(-8.576 0)" fill="url(#linear-gradient-2)"/>
</svg>
