<svg xmlns="http://www.w3.org/2000/svg" width="45.618" height="44.492" viewBox="0 0 45.618 44.492">
  <g id="Github" transform="translate(0)">
    <path id="Path_331" data-name="Path 331" d="M22.809,0A22.812,22.812,0,0,0,15.6,44.453c1.14.211,1.558-.495,1.558-1.1,0-.544-.021-2.341-.031-4.247-6.346,1.38-7.685-2.691-7.685-2.691a6.04,6.04,0,0,0-2.533-3.337c-2.069-1.416.156-1.387.156-1.387a4.794,4.794,0,0,1,3.5,2.351c2.034,3.487,5.336,2.479,6.638,1.9a4.858,4.858,0,0,1,1.448-3.05c-5.066-.577-10.392-2.533-10.392-11.272a8.828,8.828,0,0,1,2.35-6.122,8.2,8.2,0,0,1,.221-6.036S12.741,8.846,17.1,11.8a21.635,21.635,0,0,1,11.423,0c4.354-2.951,6.266-2.338,6.266-2.338a8.186,8.186,0,0,1,.224,6.036,8.81,8.81,0,0,1,2.347,6.122c0,8.761-5.336,10.69-10.415,11.254A5.452,5.452,0,0,1,28.493,37.1c0,3.052-.026,5.508-.026,6.259,0,.607.411,1.318,1.567,1.094A22.813,22.813,0,0,0,22.809,0ZM8.543,32.492c-.05.113-.229.147-.391.069s-.258-.229-.2-.342.228-.149.393-.071S8.6,32.379,8.543,32.492Zm1.122,1c-.109.1-.321.054-.466-.105a.349.349,0,0,1-.067-.474c.112-.1.318-.054.468.105S9.778,33.392,9.665,33.494Zm.77,1.281c-.14.1-.368.006-.51-.2s-.14-.446,0-.544.367-.01.51.191S10.577,34.675,10.435,34.774Zm1.3,1.483c-.125.138-.391.1-.586-.087s-.255-.445-.13-.583.394-.1.591.087S11.87,36.122,11.736,36.258Zm1.682.5c-.055.179-.312.26-.57.184s-.427-.287-.375-.468.311-.264.571-.183S13.472,36.577,13.419,36.759Zm1.915.212c.006.188-.213.344-.484.347s-.493-.146-.5-.331.214-.344.487-.349S15.333,36.784,15.333,36.971Zm1.881-.072c.032.184-.156.372-.425.422s-.51-.065-.544-.247.159-.377.423-.425S17.18,36.713,17.214,36.9Z" transform="translate(0)" fill="#161614"/>
  </g>
</svg>
