<svg xmlns="http://www.w3.org/2000/svg" xmlns:xlink="http://www.w3.org/1999/xlink" width="43.285" height="45.382" viewBox="0 0 43.285 45.382">
  <defs>
    <linearGradient id="linear-gradient" x1="0.5" y1="1" x2="0.5" gradientUnits="objectBoundingBox">
      <stop offset="0" stop-color="#f15a24"/>
      <stop offset="1" stop-color="#dfbe3b"/>
    </linearGradient>
  </defs>
  <g id="Gotomeeting" transform="translate(-64.998 0)">
    <path id="Path_355" data-name="Path 355" d="M76.511,247.824a11.9,11.9,0,0,1-9.847-5.877,11.427,11.427,0,0,1-.318-11.334,11.913,11.913,0,0,1,10.176-17.324,12.159,12.159,0,0,1,20.222-.027,11.879,11.879,0,0,1,10.181,17.3,11.5,11.5,0,0,1-.307,11.393,11.9,11.9,0,0,1-9.815,5.866,12.194,12.194,0,0,1-20.3,0Z" transform="translate(0 -207.87)" fill="url(#linear-gradient)"/>
    <path id="Path_356" data-name="Path 356" d="M82.572,246.97c-3.846.652-6.879-.442-8.9-3.776a7.681,7.681,0,0,1,1.255-9.158c-2.516-3.006-3.114-6.27-.959-9.712,1.7-2.715,4.2-3.625,8.576-3.318,1.293-3.518,3.787-5.64,7.617-5.645,3.808-.005,6.3,2.069,7.638,5.64,4.072-.63,7.364.566,9.184,4.439,1.454,3.1.684,5.979-1.568,8.549,2.564,3.038,3.119,6.313.91,9.766-1.691,2.65-4.336,3.6-8.543,3.221-1.271,3.55-3.792,5.651-7.611,5.651-3.792,0-6.308-2.079-7.6-5.667Zm7.6,1.724a3.731,3.731,0,0,0,3.6-2.537,3.679,3.679,0,0,0-1.3-4.137,5.939,5.939,0,0,1-.77-.652,2.421,2.421,0,0,1,1.25-4.045,2.549,2.549,0,0,1,3.124,2.473,3.784,3.784,0,0,0,4.552,3.351,3.725,3.725,0,0,0,2.85-4.676,3.8,3.8,0,0,0-5.064-2.4c-.291.108-.582.237-.883.318a2.587,2.587,0,0,1-2.747-1.013,2.356,2.356,0,0,1,.005-2.72,2.532,2.532,0,0,1,2.747-1c.35.092.679.242,1.023.361a3.8,3.8,0,0,0,4.536-1.6,3.652,3.652,0,0,0-.663-4.568,3.8,3.8,0,0,0-6.373,2.618,2.575,2.575,0,0,1-2.311,2.332,2.509,2.509,0,0,1-2.516-1.471,2.554,2.554,0,0,1,.9-3.087,7.87,7.87,0,0,0,.619-.5,3.635,3.635,0,0,0,.075-5.3,3.814,3.814,0,0,0-5.505.232,3.651,3.651,0,0,0,.56,5.328,5.835,5.835,0,0,1,.862.765,2.447,2.447,0,0,1-2.5,3.948c-1.379-.366-1.832-1.4-2.025-2.693a3.747,3.747,0,1,0-7.294,1.643,3.787,3.787,0,0,0,5.047,2.306,5.372,5.372,0,0,1,1.029-.345,2.5,2.5,0,0,1,2.973,2.079,2.38,2.38,0,0,1-2.1,2.72,5.219,5.219,0,0,1-2.02-.388,3.816,3.816,0,0,0-4.95,2.413,3.707,3.707,0,0,0,2.736,4.686,3.759,3.759,0,0,0,4.595-3.006c.054-.286.075-.576.14-.857a2.584,2.584,0,0,1,2.656-2.009,2.432,2.432,0,0,1,2.268,2.246A2.7,2.7,0,0,1,87.959,242a3.593,3.593,0,0,0-1.384,4.159,3.747,3.747,0,0,0,3.582,2.559Z" transform="translate(-3.53 -211.325)" fill="#fff"/>
  </g>
</svg>
