<svg xmlns="http://www.w3.org/2000/svg" width="48.015" height="46.815" viewBox="0 0 48.015 46.815">
  <g id="Adobe_Illustrator" data-name="Adobe Illustrator" transform="translate(0)">
    <g id="Surfaces" transform="translate(0)">
      <g id="Drawing_Surface">
        <g id="Outline_no_shadow">
          <path id="Path_319" data-name="Path 319" d="M8.5,0h31.01a8.5,8.5,0,0,1,8.5,8.5V38.312a8.5,8.5,0,0,1-8.5,8.5H8.5a8.5,8.5,0,0,1-8.5-8.5V8.5A8.5,8.5,0,0,1,8.5,0Z" fill="#300"/>
        </g>
      </g>
    </g>
    <g id="Outlined_Mnemonics_Logos" transform="translate(10.763 11.748)">
      <g id="Ai">
        <path id="Path_320" data-name="Path 320" d="M62.937,76.005H55.494l-1.52,4.7a.35.35,0,0,1-.38.28H49.832c-.22,0-.28-.12-.22-.36l6.442-18.546c.06-.2.12-.42.2-.66a6.988,6.988,0,0,0,.12-1.3.2.2,0,0,1,.16-.22h5.182c.16,0,.24.06.26.16l7.3,20.606c.06.22,0,.32-.2.32H64.9a.3.3,0,0,1-.32-.22Zm-6.282-4.061h5.082c-.12-.42-.28-.92-.46-1.44-.18-.54-.36-1.12-.54-1.721-.2-.62-.38-1.22-.58-1.841s-.38-1.2-.54-1.781c-.16-.56-.3-1.08-.44-1.56h-.04a24.564,24.564,0,0,1-.68,2.581c-.3.96-.6,1.961-.92,2.961-.28,1.02-.58,1.961-.88,2.8Z" transform="translate(-49.59 -58.299)" fill="#ff9a00"/>
        <path id="Path_321" data-name="Path 321" d="M159.956,56.922a2.476,2.476,0,0,1-1.781-.7,2.6,2.6,0,0,1-.68-1.841,2.354,2.354,0,0,1,.72-1.781A2.562,2.562,0,0,1,160,51.9a2.4,2.4,0,0,1,1.821.7,2.75,2.75,0,0,1-.04,3.621A2.353,2.353,0,0,1,159.956,56.922Zm-2.241,17.365v-15.4c0-.2.08-.28.26-.28h3.961c.18,0,.26.1.26.28v15.4c0,.22-.08.32-.26.32h-3.921A.28.28,0,0,1,157.715,74.287Z" transform="translate(-135.907 -51.9)" fill="#ff9a00"/>
      </g>
    </g>
  </g>
</svg>
