<svg xmlns="http://www.w3.org/2000/svg" width="45.253" height="45.382" viewBox="0 0 45.253 45.382">
  <g id="Lucidchart" transform="translate(-3.493)">
    <g id="g935" transform="translate(3.493)">
      <path id="path28" d="M33.993,28.132a5.932,5.932,0,0,0-5.948-5.948,5.948,5.948,0,1,0,0,11.9A5.932,5.932,0,0,0,33.993,28.132Z" transform="translate(11.13 11.303)" fill="#de8b30"/>
      <path id="path30" d="M28.132,11.809a5.932,5.932,0,0,1-5.948-5.948,5.948,5.948,0,0,1,11.9,0A5.932,5.932,0,0,1,28.132,11.809Z" transform="translate(11.174 0.086)" fill="#de8b30"/>
      <path id="path32" d="M28.445,39.305a5.948,5.948,0,1,1-11.9,0A10.926,10.926,0,0,0,5.689,28.445,5.768,5.768,0,0,1,0,22.626a5.932,5.932,0,0,1,5.948-5.948A10.926,10.926,0,0,0,16.808,5.818,5.714,5.714,0,0,1,22.626,0a5.824,5.824,0,0,1,5.818,5.948A5.852,5.852,0,0,1,22.5,11.9a10.861,10.861,0,0,0,0,21.721A5.568,5.568,0,0,1,28.445,39.305Z" transform="translate(0 0.129)" fill="#de8b30"/>
    </g>
  </g>
</svg>
