<svg id="Adobe_Photoshop" data-name="Adobe Photoshop" xmlns="http://www.w3.org/2000/svg" width="48.015" height="46.815" viewBox="0 0 48.015 46.815">
  <g id="Surfaces" transform="translate(0)">
    <g id="Photo_Surface">
      <g id="Outline_no_shadow">
        <path id="Path_322" data-name="Path 322" d="M8.5,0h31.01a8.5,8.5,0,0,1,8.5,8.5V38.312a8.5,8.5,0,0,1-8.5,8.5H8.5a8.5,8.5,0,0,1-8.5-8.5V8.5A8.5,8.5,0,0,1,8.5,0Z" fill="#001e36"/>
      </g>
    </g>
  </g>
  <g id="Outlined_Mnemonics_Logos" transform="translate(10.182 12.531)">
    <g id="Ps">
      <path id="Path_323" data-name="Path 323" d="M54,80.426V59.84c0-.14.06-.22.2-.22.34,0,.66,0,1.12-.02.48-.02.98-.02,1.52-.04s1.12-.02,1.741-.04,1.22-.02,1.821-.02a11.763,11.763,0,0,1,4.121.62A7.144,7.144,0,0,1,67.2,61.761a6.37,6.37,0,0,1,1.46,2.281,7.657,7.657,0,0,1,.46,2.6,7.152,7.152,0,0,1-1.2,4.261A6.854,6.854,0,0,1,64.7,73.344a12.966,12.966,0,0,1-4.5.68c-.48,0-.8,0-1-.02s-.48-.02-.86-.02v6.422a.249.249,0,0,1-.22.28H54.24C54.08,80.687,54,80.607,54,80.426Zm4.361-16.945V70.2c.28.02.54.04.78.04H60.2a7.473,7.473,0,0,0,2.3-.36,3.441,3.441,0,0,0,1.641-1.06,3.091,3.091,0,0,0,.62-2.061,3.293,3.293,0,0,0-.46-1.781,2.9,2.9,0,0,0-1.4-1.14,5.871,5.871,0,0,0-2.361-.4c-.52,0-.98,0-1.36.02a4.581,4.581,0,0,0-.82.02Z" transform="translate(-54 -59.5)" fill="#31a8ff"/>
      <path id="Path_324" data-name="Path 324" d="M150.633,88.821a7.081,7.081,0,0,0-1.921-.68,10.546,10.546,0,0,0-2.241-.26,4.028,4.028,0,0,0-1.2.14,1.027,1.027,0,0,0-.62.4,1.06,1.06,0,0,0-.16.54.89.89,0,0,0,.2.52,2.258,2.258,0,0,0,.68.54c.46.24.94.46,1.42.66a14.49,14.49,0,0,1,3.081,1.46,4.655,4.655,0,0,1,1.58,1.661,4.319,4.319,0,0,1,.46,2.061,4.655,4.655,0,0,1-.78,2.661,5.014,5.014,0,0,1-2.241,1.781,9.167,9.167,0,0,1-3.621.64,13.78,13.78,0,0,1-2.721-.26,8.071,8.071,0,0,1-2.041-.64.393.393,0,0,1-.22-.38V96.184a.217.217,0,0,1,.08-.18.152.152,0,0,1,.18.02,8.564,8.564,0,0,0,2.481.98,9.314,9.314,0,0,0,2.361.3,3.819,3.819,0,0,0,1.661-.28.929.929,0,0,0,.54-.84,1.06,1.06,0,0,0-.48-.8,8.484,8.484,0,0,0-1.961-.94A12.241,12.241,0,0,1,142.31,93a5.18,5.18,0,0,1-1.52-1.7,4.293,4.293,0,0,1-.46-2.041,4.705,4.705,0,0,1,.68-2.421,4.932,4.932,0,0,1,2.1-1.841,7.758,7.758,0,0,1,3.541-.7,17.247,17.247,0,0,1,2.481.18,7.039,7.039,0,0,1,1.721.46.351.351,0,0,1,.2.18,1,1,0,0,1,.04.24v3.261a.246.246,0,0,1-.1.2A.533.533,0,0,1,150.633,88.821Z" transform="translate(-123.024 -79.338)" fill="#31a8ff"/>
    </g>
  </g>
</svg>
