<svg xmlns="http://www.w3.org/2000/svg" width="45.292" height="45.382" viewBox="0 0 45.292 45.382">
  <g id="Slack" transform="translate(0)">
    <path id="Path_351" data-name="Path 351" d="M16.606,0a4.537,4.537,0,0,0,0,9.075h4.53V4.539A4.537,4.537,0,0,0,16.606,0h0m0,12.1H4.53a4.538,4.538,0,0,0,0,9.076H16.606a4.538,4.538,0,0,0,0-9.076Z" transform="translate(0 0)" fill="#36c5f0" fill-rule="evenodd"/>
    <path id="Path_352" data-name="Path 352" d="M1326.536,16.639a4.53,4.53,0,1,0-9.06,0v4.539h4.53A4.534,4.534,0,0,0,1326.536,16.639Zm-12.078,0V4.537a4.529,4.529,0,1,0-9.058,0v12.1a4.529,4.529,0,1,0,9.058,0Z" transform="translate(-1281.244 0)" fill="#2eb67d" fill-rule="evenodd"/>
    <path id="Path_353" data-name="Path 353" d="M1309.83,1329.08a4.537,4.537,0,0,0,0-9.075h-4.53v4.537A4.536,4.536,0,0,0,1309.83,1329.08Zm0-12.1h12.078a4.538,4.538,0,0,0,0-9.077h-12.078a4.538,4.538,0,0,0,0,9.077Z" transform="translate(-1281.146 -1283.698)" fill="#ecb22e" fill-rule="evenodd"/>
    <path id="Path_354" data-name="Path 354" d="M0,1312.537a4.53,4.53,0,1,0,9.06,0V1308H4.53A4.534,4.534,0,0,0,0,1312.537Zm12.078,0v12.1a4.529,4.529,0,1,0,9.058,0v-12.1a4.529,4.529,0,1,0-9.058,0h0" transform="translate(0 -1283.796)" fill="#e01e5a" fill-rule="evenodd"/>
  </g>
</svg>
