<svg xmlns="http://www.w3.org/2000/svg" xmlns:xlink="http://www.w3.org/1999/xlink" width="45.618" height="45.382" viewBox="0 0 45.618 45.382">
  <defs>
    <linearGradient id="linear-gradient" x1="0.5" y1="1.021" x2="0.5" y2="0.021" gradientUnits="objectBoundingBox">
      <stop offset="0" stop-color="#fff"/>
      <stop offset="1" stop-color="#fff" stop-opacity="0"/>
    </linearGradient>
  </defs>
  <g id="VS" transform="translate(-0.001 0)">
    <path id="Path_333" data-name="Path 333" d="M6.591,46.163a1.9,1.9,0,0,1-1.967.309L1.169,45.023A1.9,1.9,0,0,1,0,43.279V23.007a1.9,1.9,0,0,1,1.169-1.744l3.455-1.426a1.9,1.9,0,0,1,1.967.309l.775.642a1.05,1.05,0,0,0-1.663.855v23a1.05,1.05,0,0,0,1.663.855Z" transform="translate(0.001 -10.452)" fill="#52218a"/>
    <path id="Path_334" data-name="Path 334" d="M1.169,34.822A1.9,1.9,0,0,1,0,33.078v-.157a1.1,1.1,0,0,0,1.9.737L31.363,1.083A2.851,2.851,0,0,1,34.6.532L44,5.056a2.851,2.851,0,0,1,1.616,2.571v.109a1.8,1.8,0,0,0-2.941-1.392L7.365,35.3l-.775.665a1.9,1.9,0,0,1-1.967.309Z" transform="translate(0.001 -0.25)" fill="#6c33af"/>
    <path id="Path_335" data-name="Path 335" d="M1.169,21.255A1.9,1.9,0,0,0,0,23v.157a1.1,1.1,0,0,1,1.9-.737L31.363,54.993a2.851,2.851,0,0,0,3.241.551L44,51.021a2.851,2.851,0,0,0,1.616-2.571v-.109a1.8,1.8,0,0,1-2.941,1.392L7.365,20.779l-.775-.665a1.9,1.9,0,0,0-1.967-.285Z" transform="translate(0.001 -10.443)" fill="#854cc7"/>
    <path id="Path_336" data-name="Path 336" d="M69.241,45.352A2.851,2.851,0,0,1,66,44.8a1.673,1.673,0,0,0,2.851-1.183V2.276A1.673,1.673,0,0,0,66,1.083,2.851,2.851,0,0,1,69.241.532l9.4,4.519a2.851,2.851,0,0,1,1.616,2.571v30.64a2.851,2.851,0,0,1-1.616,2.571Z" transform="translate(-34.637 -0.25)" fill="#b179f1"/>
    <g id="Group_37" data-name="Group 37" transform="translate(0.001)" opacity="0.25">
      <path id="Path_337" data-name="Path 337" d="M32.736,45.558a2.851,2.851,0,0,0,1.868-.209L44,40.83a2.851,2.851,0,0,0,1.616-2.571V7.619A2.851,2.851,0,0,0,44,5.048L34.6.529a2.831,2.831,0,0,0-3.241.551L16.214,17.836,7.365,10.584l-.775-.665a1.9,1.9,0,0,0-1.715-.394,1.212,1.212,0,0,0-.252.086L1.169,11.059A1.9,1.9,0,0,0,0,12.661V33.218a1.9,1.9,0,0,0,1.169,1.6l3.455,1.426a1.212,1.212,0,0,0,.252.086,1.9,1.9,0,0,0,1.715-.394l.775-.642,8.848-7.251L31.363,44.8A2.851,2.851,0,0,0,32.736,45.558Zm1.478-32.275-11.78,9.656L34.214,32.6ZM5.7,16.415l5.9,6.524L5.7,29.464Z" transform="translate(0 -0.248)" fill-rule="evenodd" fill="url(#linear-gradient)"/>
    </g>
  </g>
</svg>
