<svg xmlns="http://www.w3.org/2000/svg" width="45.618" height="45.13" viewBox="0 0 45.618 45.13">
  <g id="VS_Code" data-name="VS Code" transform="translate(0 0)">
    <path id="Path_338" data-name="Path 338" d="M3.159,248.8s-1.111-.8.222-1.87l3.106-2.778a1.319,1.319,0,0,1,1.829-.12l28.666,21.7v10.407s-.014,1.634-2.111,1.454Z" transform="translate(-2.725 -233.064)" fill="#2489ca"/>
    <path id="Path_339" data-name="Path 339" d="M12.537,498.8l-7.389,6.717s-.759.565,0,1.574l3.43,3.12a1.41,1.41,0,0,0,2.018-.12l7.833-5.94Z" transform="translate(-4.714 -476.354)" fill="#1070b3"/>
    <path id="Path_340" data-name="Path 340" d="M306.078,44.295l13.551-10.347L319.541,23.6s-.579-2.259-2.509-1.083L299,38.925Z" transform="translate(-285.284 -21.794)" fill="#0877b9"/>
    <path id="Path_341" data-name="Path 341" d="M688.9,58.509a1.863,1.863,0,0,0,1.741.542l10.56-5.2a2.227,2.227,0,0,0,1.162-2.065V20.709a2.077,2.077,0,0,0-1.4-1.838l-9.153-4.412a2.541,2.541,0,0,0-3.31.222s1.685-1.213,2.509,1.083V56.851a1.867,1.867,0,0,1-.181.81c-.241.486-.764.94-2.018.75Z" transform="translate(-656.752 -13.962)" fill="#3c99d4"/>
  </g>
</svg>
