<?xml version="1.0" encoding="UTF-8"?><svg id="Layer_2" xmlns="http://www.w3.org/2000/svg" xmlns:xlink="http://www.w3.org/1999/xlink" viewBox="0 0 21.53 20.11"><defs><linearGradient id="linear-gradient" x1="0" y1="10.05" x2="21.53" y2="10.05" gradientTransform="matrix(1, 0, 0, 1, 0, 0)" gradientUnits="userSpaceOnUse"><stop offset="0" stop-color="#3b82f6"/><stop offset=".63" stop-color="#24aaea"/><stop offset=".99" stop-color="#1abee5"/></linearGradient></defs><g id="Photo_Background"><path d="M10.77,0C4.83,0,0,4.51,0,10.05s4.83,10.05,10.77,10.05,10.77-4.51,10.77-10.05S16.7,0,10.77,0Zm3.65,13.88c-1.1-.27-2.19-.39-3.15-.44v-2.82h3.92c-.11,1.09-.36,2.17-.76,3.22v.03ZM7.19,5.72c.89,.2,1.85,.34,2.88,.41v3.35h-3.67c.06-1.26,.31-2.48,.73-3.6,.02-.05,.04-.1,.06-.16Zm6.63-1c-.85,.21-1.7,.32-2.55,.33V1.73c1.21,.71,2.06,2.03,2.55,2.99Zm-3.76,.28c-.85-.06-1.64-.17-2.39-.33,.61-1.11,1.41-2.05,2.39-2.77v3.09Zm0,5.63v2.81c-1.06,.04-2.07,.23-3.01,.5-.39-1.07-.61-2.19-.66-3.31h3.67Zm0,3.94v3.57c-1.12-.89-1.96-1.97-2.55-3.15,.81-.22,1.66-.38,2.55-.42Zm1.21,3.63v-3.63c.83,.04,1.75,.14,2.69,.36-.55,1.11-1.4,2.32-2.69,3.27Zm0-8.72v-3.31c1.01,0,2.01-.14,3.02-.4,.57,1.41,.89,2.65,.94,3.71h-3.96Zm3.71-5.11c-.48-.97-1.23-2.18-2.31-3.07,1.69,.32,3.22,1.06,4.46,2.1-.72,.39-1.44,.71-2.16,.97Zm-8.49-.01c-.78-.24-1.49-.55-2.14-.92,1.27-1.08,2.86-1.84,4.61-2.15-1.01,.82-1.85,1.86-2.47,3.07Zm-.47,1.04s-.03,.06-.04,.1c-.48,1.28-.75,2.63-.81,3.98H1.23c.14-1.98,.97-3.79,2.27-5.21,.77,.46,1.61,.84,2.53,1.14Zm-.85,5.22c.04,.91,.18,1.81,.42,2.68,.09,.34,.2,.67,.32,1-1.01,.37-1.91,.82-2.67,1.26-1.16-1.38-1.9-3.08-2.02-4.94h3.95Zm1.19,4.73c.66,1.35,1.58,2.53,2.72,3.49-1.94-.32-3.67-1.19-5.02-2.42,.66-.37,1.44-.75,2.29-1.06Zm8.76-.09c.8,.28,1.59,.66,2.31,1.17-1.37,1.25-3.14,2.12-5.11,2.42,1.35-1.08,2.23-2.4,2.81-3.59Zm.45-1.05h0c.44-1.17,.71-2.38,.83-3.59h3.9c-.13,1.87-.88,3.59-2.06,4.98-.83-.61-1.75-1.06-2.67-1.38Zm4.73-4.74h-3.86c-.05-1.18-.38-2.54-1-4.06,.86-.3,1.71-.7,2.57-1.18,1.32,1.43,2.16,3.25,2.3,5.24Z" fill="url(#linear-gradient)"/></g></svg>