<svg id="Adobe_Xd" data-name="Adobe Xd" xmlns="http://www.w3.org/2000/svg" width="48.015" height="46.815" viewBox="0 0 48.015 46.815">
  <path id="Path_325" data-name="Path 325" d="M8.5,0h31.01a8.5,8.5,0,0,1,8.5,8.5V38.312a8.5,8.5,0,0,1-8.5,8.5H8.5a8.5,8.5,0,0,1-8.5-8.5V8.5A8.5,8.5,0,0,1,8.5,0Z" fill="#470137"/>
  <g id="Group_36" data-name="Group 36" transform="translate(7.049 11.748)">
    <path id="Path_326" data-name="Path 326" d="M53.214,60.3l-6,9.9,6.4,10.5a.344.344,0,0,1,.04.24c-.02.08-.1.02-.22.04H48.853c-.32,0-.54-.02-.68-.22-.42-.84-.86-1.661-1.28-2.5-.42-.82-.88-1.661-1.36-2.521s-.96-1.721-1.44-2.6h-.04c-.42.86-.88,1.721-1.34,2.581s-.92,1.721-1.36,2.561c-.46.84-.92,1.7-1.38,2.521-.08.2-.24.22-.46.22h-4.4c-.08,0-.14.04-.14-.06a.278.278,0,0,1,.04-.22l6.222-10.2L35.169,60.28c-.06-.08-.08-.16-.04-.2a.232.232,0,0,1,.2-.08H39.87a1.181,1.181,0,0,1,.28.04.567.567,0,0,1,.2.18c.38.86.82,1.721,1.28,2.581.48.86.94,1.7,1.44,2.541.48.84.92,1.681,1.34,2.541h.04c.42-.88.86-1.741,1.3-2.581s.9-1.681,1.36-2.521.9-1.7,1.34-2.521a.34.34,0,0,1,.12-.2.381.381,0,0,1,.26-.04h4.221a.184.184,0,0,1,.22.14c.02.02-.02.1-.06.14Z" transform="translate(-34.961 -58.256)" fill="#ff61f6"/>
    <path id="Path_327" data-name="Path 327" d="M138.72,74.435a9.946,9.946,0,0,1-4.3-.9,6.975,6.975,0,0,1-3.021-2.721,8.657,8.657,0,0,1-1.1-4.561,8.217,8.217,0,0,1,1.1-4.221,8.308,8.308,0,0,1,3.181-3.1,10.234,10.234,0,0,1,5.062-1.16,3.572,3.572,0,0,1,.42.02c.18.02.38.02.62.04V51.508c0-.14.06-.22.2-.22h4.061a.179.179,0,0,1,.2.14V70.514c0,.36.02.76.04,1.2.04.42.06.82.08,1.16a.325.325,0,0,1-.2.32,15.279,15.279,0,0,1-3.261.96A17.648,17.648,0,0,1,138.72,74.435Zm1.961-4v-8.8a5.119,5.119,0,0,0-.54-.1c-.22-.02-.44-.04-.66-.04a4.932,4.932,0,0,0-2.261.52,4.485,4.485,0,0,0-1.7,1.48,4.435,4.435,0,0,0-.66,2.541,5.575,5.575,0,0,0,.34,2.061,3.91,3.91,0,0,0,.9,1.42,3.456,3.456,0,0,0,1.36.8,5.237,5.237,0,0,0,1.661.26c.3,0,.58-.02.84-.04A1.75,1.75,0,0,0,140.68,70.434Z" transform="translate(-111.223 -51.284)" fill="#ff61f6"/>
  </g>
</svg>
