<?xml version="1.0" encoding="UTF-8"?><svg id="Layer_2" xmlns="http://www.w3.org/2000/svg" viewBox="0 0 20 20"><g id="Sitting"><path id="Icon_awesome-dribbble" d="M10,0C4.48,0,0,4.48,0,10s4.48,10,10,10,10-4.48,10-10h0C19.99,4.48,15.52,0,10,0Zm6.61,4.61c1.23,1.5,1.91,3.38,1.93,5.32-1.96-.39-3.96-.48-5.95-.27-.23-.57-.45-1.06-.75-1.68,1.86-.69,3.5-1.85,4.77-3.37h0Zm-.95-.99c-1.17,1.44-2.72,2.51-4.48,3.09-.95-1.73-2.02-3.4-3.19-5,2.71-.66,5.58,.06,7.66,1.91ZM6.37,2.28c1.14,1.59,2.2,3.24,3.17,4.94-2.58,.68-5.23,1.03-7.9,1.04,.55-2.62,2.31-4.84,4.73-5.98ZM1.46,10.01v-.26c2.97,.01,5.92-.4,8.78-1.22,.24,.48,.48,.96,.69,1.45-3.04,.97-5.62,3.01-7.28,5.74-1.41-1.57-2.19-3.6-2.19-5.71Zm3.3,6.74c1.51-2.56,3.92-4.47,6.76-5.35,.81,2.1,1.42,4.27,1.82,6.48-2.85,1.21-6.14,.78-8.58-1.12h0Zm10.02,.34c-.38-2.07-.93-4.11-1.66-6.09,1.78-.26,3.59-.14,5.32,.36-.38,2.33-1.7,4.4-3.66,5.73Z" fill="#2d2527"/></g></svg>